<svg xmlns="http://www.w3.org/2000/svg" width="70" height="48" viewBox="0 0 70 48" fill="none"><path d="M34.3946 23.8638C34.3946 27.8958 33.9573 31.4052 33.0826 34.3918C32.2293 37.3572 31.0346 39.8105 29.4986 41.7518C27.9839 43.6932 26.1813 45.1438 24.0906 46.1038C22.0213 47.0425 19.7813 47.5118 17.3706 47.5118C14.9599 47.5118 12.7199 47.0425 10.6506 46.1038C8.60261 45.1438 6.82128 43.6932 5.30661 41.7518C3.79194 39.8105 2.60794 37.3572 1.75461 34.3918C0.901276 31.4052 0.474609 27.8958 0.474609 23.8638C0.474609 19.8105 0.901276 16.3012 1.75461 13.3358C2.60794 10.3705 3.79194 7.91715 5.30661 5.97582C6.82128 4.03449 8.60261 2.59449 10.6506 1.65582C12.7199 0.69582 14.9599 0.21582 17.3706 0.21582C19.7813 0.21582 22.0213 0.69582 24.0906 1.65582C26.1813 2.59449 27.9839 4.03449 29.4986 5.97582C31.0346 7.91715 32.2293 10.3705 33.0826 13.3358C33.9573 16.3012 34.3946 19.8105 34.3946 23.8638ZM26.2346 23.8638C26.2346 20.5145 25.9893 17.7412 25.4986 15.5438C25.0079 13.3465 24.3466 11.5972 23.5146 10.2958C22.7039 8.99449 21.7653 8.08782 20.6986 7.57582C19.6319 7.04248 18.5226 6.77582 17.3706 6.77582C16.2399 6.77582 15.1413 7.04248 14.0746 7.57582C13.0293 8.08782 12.1013 8.99449 11.2906 10.2958C10.4799 11.5972 9.82928 13.3465 9.33861 15.5438C8.86928 17.7412 8.63461 20.5145 8.63461 23.8638C8.63461 27.2132 8.86928 29.9865 9.33861 32.1838C9.82928 34.3812 10.4799 36.1305 11.2906 37.4318C12.1013 38.7332 13.0293 39.6505 14.0746 40.1838C15.1413 40.6958 16.2399 40.9518 17.3706 40.9518C18.5226 40.9518 19.6319 40.6958 20.6986 40.1838C21.7653 39.6505 22.7039 38.7332 23.5146 37.4318C24.3466 36.1305 25.0079 34.3812 25.4986 32.1838C25.9893 29.9865 26.2346 27.2132 26.2346 23.8638Z" fill="#6F011E"></path><path d="M69.1196 41.0798V46.9998H43.5196V41.0798H52.8956V14.1038C52.8956 13.0372 52.9276 11.9385 52.9916 10.8078L46.3356 16.3758C45.9516 16.6745 45.5676 16.8665 45.1836 16.9518C44.8209 17.0158 44.4689 17.0158 44.1276 16.9518C43.8076 16.8878 43.5196 16.7812 43.2636 16.6318C43.0076 16.4612 42.8156 16.2798 42.6876 16.0878L40.1916 12.6638L54.3036 0.663818H60.7996V41.0798H69.1196Z" fill="#6F011E"></path></svg>