<svg xmlns="http://www.w3.org/2000/svg" width="71" height="49" viewBox="0 0 71 49" fill="none"><path d="M34.3946 24.4517C34.3946 28.4837 33.9573 31.993 33.0826 34.9797C32.2293 37.945 31.0346 40.3984 29.4986 42.3397C27.9839 44.281 26.1813 45.7317 24.0906 46.6917C22.0213 47.6304 19.7813 48.0997 17.3706 48.0997C14.9599 48.0997 12.7199 47.6304 10.6506 46.6917C8.60261 45.7317 6.82128 44.281 5.30661 42.3397C3.79194 40.3984 2.60794 37.945 1.75461 34.9797C0.901276 31.993 0.474609 28.4837 0.474609 24.4517C0.474609 20.3984 0.901276 16.889 1.75461 13.9237C2.60794 10.9584 3.79194 8.50504 5.30661 6.56371C6.82128 4.62238 8.60261 3.18238 10.6506 2.24371C12.7199 1.28371 14.9599 0.803711 17.3706 0.803711C19.7813 0.803711 22.0213 1.28371 24.0906 2.24371C26.1813 3.18238 27.9839 4.62238 29.4986 6.56371C31.0346 8.50504 32.2293 10.9584 33.0826 13.9237C33.9573 16.889 34.3946 20.3984 34.3946 24.4517ZM26.2346 24.4517C26.2346 21.1024 25.9893 18.329 25.4986 16.1317C25.0079 13.9344 24.3466 12.185 23.5146 10.8837C22.7039 9.58238 21.7653 8.67571 20.6986 8.16371C19.6319 7.63037 18.5226 7.36371 17.3706 7.36371C16.2399 7.36371 15.1413 7.63037 14.0746 8.16371C13.0293 8.67571 12.1013 9.58238 11.2906 10.8837C10.4799 12.185 9.82928 13.9344 9.33861 16.1317C8.86928 18.329 8.63461 21.1024 8.63461 24.4517C8.63461 27.801 8.86928 30.5744 9.33861 32.7717C9.82928 34.969 10.4799 36.7184 11.2906 38.0197C12.1013 39.321 13.0293 40.2384 14.0746 40.7717C15.1413 41.2837 16.2399 41.5397 17.3706 41.5397C18.5226 41.5397 19.6319 41.2837 20.6986 40.7717C21.7653 40.2384 22.7039 39.321 23.5146 38.0197C24.3466 36.7184 25.0079 34.969 25.4986 32.7717C25.9893 30.5744 26.2346 27.801 26.2346 24.4517Z" fill="#6F011E"></path><path d="M67.3916 40.2277C68.2449 40.2277 68.9169 40.473 69.4076 40.9637C69.9196 41.433 70.1756 42.0624 70.1756 42.8517V47.5877H38.4316V44.9637C38.4316 44.4304 38.5383 43.8757 38.7516 43.2997C38.9863 42.7024 39.3489 42.169 39.8396 41.6997L53.8876 27.6197C55.0609 26.425 56.1063 25.2837 57.0236 24.1957C57.9623 23.1077 58.7409 22.0304 59.3596 20.9637C59.9783 19.897 60.4476 18.8197 60.7676 17.7317C61.1089 16.6224 61.2796 15.4597 61.2796 14.2437C61.2796 13.1344 61.1196 12.1637 60.7996 11.3317C60.4796 10.4784 60.0209 9.76371 59.4236 9.18771C58.8476 8.61171 58.1436 8.18504 57.3116 7.90771C56.5009 7.60904 55.5836 7.45971 54.5596 7.45971C53.6209 7.45971 52.7463 7.59838 51.9356 7.87571C51.1463 8.13171 50.4423 8.50504 49.8236 8.99571C49.2049 9.46504 48.6823 10.0197 48.2556 10.6597C47.8289 11.2997 47.5089 12.0037 47.2956 12.7717C46.9329 13.753 46.4636 14.4037 45.8876 14.7237C45.3116 15.0437 44.4796 15.1184 43.3916 14.9477L39.2316 14.2117C39.5516 11.993 40.1703 10.0517 41.0876 8.38771C42.0049 6.70238 43.1463 5.30504 44.5116 4.19571C45.8983 3.06504 47.4769 2.22238 49.2476 1.66771C51.0396 1.09171 52.9596 0.803711 55.0076 0.803711C57.1409 0.803711 59.0929 1.12371 60.8636 1.76371C62.6343 2.38238 64.1489 3.26771 65.4076 4.41971C66.6663 5.57171 67.6476 6.95838 68.3516 8.57971C69.0556 10.201 69.4076 12.0037 69.4076 13.9877C69.4076 15.6944 69.1516 17.273 68.6396 18.7237C68.1489 20.1744 67.4769 21.561 66.6236 22.8837C65.7916 24.2064 64.8103 25.4864 63.6796 26.7237C62.5489 27.961 61.3649 29.2197 60.1276 30.4997L49.6956 41.1557C50.6983 40.857 51.6903 40.633 52.6716 40.4837C53.6743 40.313 54.6236 40.2277 55.5196 40.2277H67.3916Z" fill="#6F011E"></path></svg>