<svg xmlns="http://www.w3.org/2000/svg" width="71" height="49" viewBox="0 0 71 49" fill="none"><path d="M34.3946 24.5191C34.3946 28.5511 33.9573 32.0604 33.0826 35.0471C32.2293 38.0124 31.0346 40.4658 29.4986 42.4071C27.9839 44.3484 26.1813 45.7991 24.0906 46.7591C22.0213 47.6978 19.7813 48.1671 17.3706 48.1671C14.9599 48.1671 12.7199 47.6978 10.6506 46.7591C8.60261 45.7991 6.82128 44.3484 5.30661 42.4071C3.79194 40.4658 2.60794 38.0124 1.75461 35.0471C0.901276 32.0604 0.474609 28.5511 0.474609 24.5191C0.474609 20.4658 0.901276 16.9564 1.75461 13.9911C2.60794 11.0258 3.79194 8.57242 5.30661 6.63109C6.82128 4.68976 8.60261 3.24976 10.6506 2.31109C12.7199 1.35109 14.9599 0.871094 17.3706 0.871094C19.7813 0.871094 22.0213 1.35109 24.0906 2.31109C26.1813 3.24976 27.9839 4.68976 29.4986 6.63109C31.0346 8.57242 32.2293 11.0258 33.0826 13.9911C33.9573 16.9564 34.3946 20.4658 34.3946 24.5191ZM26.2346 24.5191C26.2346 21.1698 25.9893 18.3964 25.4986 16.1991C25.0079 14.0018 24.3466 12.2524 23.5146 10.9511C22.7039 9.64976 21.7653 8.74309 20.6986 8.23109C19.6319 7.69776 18.5226 7.43109 17.3706 7.43109C16.2399 7.43109 15.1413 7.69776 14.0746 8.23109C13.0293 8.74309 12.1013 9.64976 11.2906 10.9511C10.4799 12.2524 9.82928 14.0018 9.33861 16.1991C8.86928 18.3964 8.63461 21.1698 8.63461 24.5191C8.63461 27.8684 8.86928 30.6418 9.33861 32.8391C9.82928 35.0364 10.4799 36.7858 11.2906 38.0871C12.1013 39.3884 13.0293 40.3058 14.0746 40.8391C15.1413 41.3511 16.2399 41.6071 17.3706 41.6071C18.5226 41.6071 19.6319 41.3511 20.6986 40.8391C21.7653 40.3058 22.7039 39.3884 23.5146 38.0871C24.3466 36.7858 25.0079 35.0364 25.4986 32.8391C25.9893 30.6418 26.2346 27.8684 26.2346 24.5191Z" fill="#6F011E"></path><path d="M39.4556 14.2791C39.7756 12.0604 40.3943 10.1191 41.3116 8.45509C42.2289 6.76976 43.3703 5.37243 44.7356 4.26309C46.1223 3.13243 47.7009 2.28976 49.4716 1.73509C51.2636 1.15909 53.1836 0.871094 55.2316 0.871094C57.3649 0.871094 59.2849 1.18043 60.9916 1.79909C62.7196 2.39642 64.1916 3.23909 65.4076 4.32709C66.6236 5.39376 67.5516 6.65243 68.1916 8.10309C68.8529 9.55376 69.1836 11.1218 69.1836 12.8071C69.1836 14.2791 69.0129 15.5804 68.6716 16.7111C68.3516 17.8204 67.8823 18.7911 67.2636 19.6231C66.6449 20.4551 65.8769 21.1591 64.9596 21.7351C64.0423 22.3111 63.0076 22.7911 61.8556 23.1751C64.6289 24.0498 66.6983 25.3831 68.0636 27.1751C69.4289 28.9671 70.1116 31.2178 70.1116 33.9271C70.1116 36.2311 69.6849 38.2684 68.8316 40.0391C67.9783 41.8098 66.8263 43.3031 65.3756 44.5191C63.9249 45.7138 62.2396 46.6204 60.3196 47.2391C58.4209 47.8578 56.4049 48.1671 54.2716 48.1671C51.9463 48.1671 49.9196 47.9004 48.1916 47.3671C46.4636 46.8338 44.9596 46.0444 43.6796 44.9991C42.3996 43.9538 41.3116 42.6738 40.4156 41.1591C39.5196 39.6444 38.7516 37.8951 38.1116 35.9111L41.5996 34.4711C42.5169 34.0871 43.3703 33.9911 44.1596 34.1831C44.9703 34.3538 45.5569 34.7804 45.9196 35.4631C46.3036 36.2098 46.7196 36.9458 47.1676 37.6711C47.6369 38.3964 48.1916 39.0471 48.8316 39.6231C49.4716 40.1778 50.2183 40.6364 51.0716 40.9991C51.9463 41.3404 52.9809 41.5111 54.1756 41.5111C55.5196 41.5111 56.6929 41.2978 57.6956 40.8711C58.6983 40.4231 59.5303 39.8471 60.1916 39.1431C60.8743 38.4391 61.3756 37.6604 61.6956 36.8071C62.0369 35.9324 62.2076 35.0578 62.2076 34.1831C62.2076 33.0738 62.0903 32.0711 61.8556 31.1751C61.6209 30.2578 61.1303 29.4791 60.3836 28.8391C59.6369 28.1991 58.5596 27.6978 57.1516 27.3351C55.7649 26.9724 53.8983 26.7911 51.5516 26.7911V21.1591C53.4929 21.1378 55.1036 20.9564 56.3836 20.6151C57.6636 20.2738 58.6769 19.8044 59.4236 19.2071C60.1916 18.5884 60.7249 17.8524 61.0236 16.9991C61.3223 16.1458 61.4716 15.2071 61.4716 14.1831C61.4716 12.0071 60.8636 10.3538 59.6476 9.22309C58.4316 8.09242 56.8103 7.52709 54.7836 7.52709C53.8449 7.52709 52.9809 7.66576 52.1916 7.94309C51.4023 8.19909 50.6876 8.57242 50.0476 9.06309C49.4289 9.53243 48.9063 10.0871 48.4796 10.7271C48.0529 11.3671 47.7329 12.0711 47.5196 12.8391C47.1569 13.8204 46.6769 14.4711 46.0796 14.7911C45.5036 15.1111 44.6823 15.1858 43.6156 15.0151L39.4556 14.2791Z" fill="#6F011E"></path></svg>