<svg xmlns="http://www.w3.org/2000/svg" width="72" height="49" viewBox="0 0 72 49" fill="none"><path d="M34.3946 24.6294C34.3946 28.6614 33.9573 32.1708 33.0826 35.1574C32.2293 38.1228 31.0346 40.5761 29.4986 42.5174C27.9839 44.4588 26.1813 45.9094 24.0906 46.8694C22.0213 47.8081 19.7813 48.2774 17.3706 48.2774C14.9599 48.2774 12.7199 47.8081 10.6506 46.8694C8.60261 45.9094 6.82128 44.4588 5.30661 42.5174C3.79194 40.5761 2.60794 38.1228 1.75461 35.1574C0.901276 32.1708 0.474609 28.6614 0.474609 24.6294C0.474609 20.5761 0.901276 17.0668 1.75461 14.1014C2.60794 11.1361 3.79194 8.68278 5.30661 6.74144C6.82128 4.80011 8.60261 3.36011 10.6506 2.42144C12.7199 1.46144 14.9599 0.981445 17.3706 0.981445C19.7813 0.981445 22.0213 1.46144 24.0906 2.42144C26.1813 3.36011 27.9839 4.80011 29.4986 6.74144C31.0346 8.68278 32.2293 11.1361 33.0826 14.1014C33.9573 17.0668 34.3946 20.5761 34.3946 24.6294ZM26.2346 24.6294C26.2346 21.2801 25.9893 18.5068 25.4986 16.3094C25.0079 14.1121 24.3466 12.3628 23.5146 11.0614C22.7039 9.76011 21.7653 8.85344 20.6986 8.34144C19.6319 7.80811 18.5226 7.54144 17.3706 7.54144C16.2399 7.54144 15.1413 7.80811 14.0746 8.34144C13.0293 8.85344 12.1013 9.76011 11.2906 11.0614C10.4799 12.3628 9.82928 14.1121 9.33861 16.3094C8.86928 18.5068 8.63461 21.2801 8.63461 24.6294C8.63461 27.9788 8.86928 30.7521 9.33861 32.9494C9.82928 35.1468 10.4799 36.8961 11.2906 38.1974C12.1013 39.4988 13.0293 40.4161 14.0746 40.9494C15.1413 41.4614 16.2399 41.7174 17.3706 41.7174C18.5226 41.7174 19.6319 41.4614 20.6986 40.9494C21.7653 40.4161 22.7039 39.4988 23.5146 38.1974C24.3466 36.8961 25.0079 35.1468 25.4986 32.9494C25.9893 30.7521 26.2346 27.9788 26.2346 24.6294Z" fill="#6F011E"></path><path d="M58.7836 30.3254V15.1894C58.7836 13.7601 58.8796 12.1814 59.0716 10.4534L44.7036 30.3254H58.7836ZM71.4876 30.3254V34.9014C71.4876 35.3281 71.349 35.7014 71.0716 36.0214C70.7943 36.3201 70.3996 36.4694 69.8876 36.4694H65.6636V47.7654H58.7836V36.4694H39.2636C38.7303 36.4694 38.2609 36.3094 37.8556 35.9894C37.4503 35.6481 37.1943 35.2321 37.0876 34.7414L36.2556 30.7414L58.1756 1.46144H65.6636V30.3254H71.4876Z" fill="#6F011E"></path></svg>