<svg xmlns="http://www.w3.org/2000/svg" width="64" height="63" viewBox="0 0 64 63" fill="none"><g id="Exclamation triangle" clip-path="url(#clip0_83_267)"><path id="Vector" fill-rule="evenodd" clip-rule="evenodd" d="M31.7557 7.93796C31.6656 7.99196 31.5921 8.06958 31.5431 8.1624L4.54361 54.1012C4.47635 54.209 4.44004 54.3333 4.43866 54.4604C4.43727 54.5875 4.47085 54.7125 4.53574 54.8218C4.59874 54.9399 4.68143 55.0187 4.74836 55.058C4.80743 55.0974 4.88224 55.125 5.00824 55.125H59.0032C59.0944 55.1282 59.1847 55.105 59.2631 55.058C59.3541 54.9989 59.4286 54.9176 59.4796 54.8218C59.5439 54.7121 59.5768 54.5869 59.5747 54.4598C59.5727 54.3328 59.5357 54.2087 59.4678 54.1012L32.4723 8.1624C32.4233 8.06958 32.3497 7.99196 32.2597 7.93796C32.1825 7.89564 32.0957 7.87395 32.0077 7.87496C31.9197 7.87395 31.8329 7.89564 31.7557 7.93796ZM35.8664 6.16609C35.4767 5.48712 34.9146 4.92302 34.2371 4.53074C33.5596 4.13845 32.7906 3.93188 32.0077 3.93188C31.2248 3.93188 30.4558 4.13845 29.7782 4.53074C29.1007 4.92302 28.5387 5.48712 28.1489 6.16609L1.14949 52.1049C-0.649948 55.1683 1.5078 59.0625 5.00824 59.0625H59.0032C62.5036 59.0625 64.6653 55.1643 62.8619 52.1049L35.8664 6.16609Z" fill="#6F011E"></path><path id="Vector_2" d="M28.0703 47.2499C28.0703 46.7328 28.1722 46.2208 28.37 45.7431C28.5679 45.2654 28.8579 44.8313 29.2236 44.4657C29.5892 44.1 30.0233 43.81 30.501 43.6121C30.9787 43.4143 31.4907 43.3124 32.0078 43.3124C32.5249 43.3124 33.0369 43.4143 33.5146 43.6121C33.9923 43.81 34.4264 44.1 34.792 44.4657C35.1577 44.8313 35.4477 45.2654 35.6456 45.7431C35.8435 46.2208 35.9453 46.7328 35.9453 47.2499C35.9453 48.2942 35.5305 49.2957 34.792 50.0341C34.0536 50.7726 33.0521 51.1874 32.0078 51.1874C30.9635 51.1874 29.962 50.7726 29.2236 50.0341C28.4852 49.2957 28.0703 48.2942 28.0703 47.2499ZM28.4562 23.6052C28.4038 23.1085 28.4563 22.6062 28.6105 22.1311C28.7647 21.656 29.0171 21.2186 29.3513 20.8473C29.6854 20.4761 30.0939 20.1792 30.5502 19.976C31.0065 19.7727 31.5004 19.6677 31.9999 19.6677C32.4994 19.6677 32.9934 19.7727 33.4497 19.976C33.906 20.1792 34.3145 20.4761 34.6486 20.8473C34.9828 21.2186 35.2351 21.656 35.3893 22.1311C35.5435 22.6062 35.5961 23.1085 35.5437 23.6052L34.1656 37.414C34.1193 37.9565 33.871 38.4619 33.47 38.8301C33.069 39.1984 32.5444 39.4027 31.9999 39.4027C31.4555 39.4027 30.9309 39.1984 30.5298 38.8301C30.1288 38.4619 29.8806 37.9565 29.8343 37.414L28.4562 23.6052Z" fill="#6F011E"></path></g><defs><clipPath id="clip0_83_267"><rect width="63" height="63" fill="white" transform="translate(0.5)"></rect></clipPath></defs></svg>