<svg xmlns="http://www.w3.org/2000/svg" width="183" height="45" viewBox="0 0 183 45" fill="none"><g clip-path="url(#clip0_3_373)"><path d="M36.309 36.1167L35.9139 38.9805C35.4528 42.1444 33.8949 44.8336 30.6246 44.9809C27.3542 45.1282 26.9762 44.4463 26.9762 44.4463C27.9098 44.299 28.746 43.7836 29.4046 39.8397L32.6578 20.3685C32.8898 19.0048 33.1217 17.6029 31.73 17.6029C31.876 17.1665 33.7661 15.26 36.2031 15.26C39.9574 15.26 39.3389 18.3938 39.0668 20.0139L38.8492 21.2577C40.4987 17.352 43.1533 15.1127 46.3807 15.1127C49.2845 15.1127 50.7851 17.0929 50.7851 21.9941C50.7851 29.3663 46.5153 37.1177 38.6 36.5749C37.8554 36.5231 37.0565 36.3786 36.3119 36.1195L36.309 36.1167ZM37.0479 32.0774C36.6241 34.6194 36.6899 35.7567 38.4711 35.7567C42.3028 35.7567 44.7914 26.9089 44.7914 21.3422C44.7914 18.1347 44.2186 17.1883 43.1734 17.1992C40.8996 17.221 38.411 24.2687 38.411 24.2687L37.0507 32.0774H37.0479Z" fill="white"></path><path d="M51.587 31.0328C51.587 29.4836 52.9787 27.9726 54.9146 27.9726C56.2691 27.9726 57.7783 28.7826 57.701 30.4436C56.7331 30.7028 55.7308 31.3273 55.7308 32.361C55.7308 33.3947 57.4003 34.3412 59.8116 34.3412C61.63 34.3412 64.2503 34.4121 65.0522 32.2192C67.389 25.8397 50.7193 28.3626 53.6488 19.9703C54.8115 16.6346 59.8574 15.11 64.0126 15.11C67.1856 15.11 71.2492 15.8464 71.2492 18.6857C71.2492 20.3058 69.9319 21.4131 68.3483 21.4131C66.9938 21.4131 65.6392 20.6385 65.6392 19.1275C66.4898 18.9066 67.4663 18.2793 67.4262 17.3956C67.3632 16.04 65.3844 15.8409 63.9611 15.8409C61.8334 15.8409 58.6002 16.3428 58.6002 18.8629C58.6002 24.2033 70.9085 21.2358 70.9085 28.9517C70.9085 33.2556 64.7887 35.083 59.7199 35.083C55.9656 35.083 51.5927 34.0139 51.5927 31.03L51.587 31.0328Z" fill="white"></path><path d="M20.8192 11.5534C19.7997 11.5534 18.9635 11.0461 19.2241 9.46964L19.8026 6.02488C19.9544 5.12756 19.8484 4.77845 19.4532 4.77845C19.0036 4.77845 18.2476 5.93761 17.5661 6.94676L16.8243 11.2097C16.0826 11.0925 14.8455 11.0925 14.1038 11.2097L14.983 6.02216C15.1348 5.12483 15.0288 4.77845 14.6336 4.77845C14.1783 4.77845 13.3678 6.03852 12.6777 7.06677L12.0649 11.2043C11.1313 11.1552 10.3896 11.0952 9.3386 11.2125L10.1948 5.74941C10.2722 5.24211 10.3924 4.66389 9.83116 4.66389C9.58774 4.66389 9.37583 4.77845 9.10091 4.96664L9.04077 4.85209C9.81684 4.2575 10.8335 3.76657 11.8844 3.76657C12.7665 3.76657 13.2819 4.2575 12.9641 5.6785L12.8237 6.29763C14.0408 4.47024 15.2264 3.70929 16.3547 3.70929C17.6921 3.70929 17.967 4.60662 17.7522 5.88033L17.6949 6.21581C18.892 4.4457 20.0603 3.70929 21.1715 3.70929C22.5088 3.70929 22.7837 4.60662 22.569 5.88033L21.9619 9.46964C21.6497 10.9179 22.4544 10.5633 22.4544 10.5633C22.4544 10.5633 22.2683 11.507 20.8221 11.5534H20.8192Z" fill="white"></path><path d="M28.116 9.80238C28.9207 9.81602 30.0003 9.58419 30.6847 8.68686L30.9253 8.83141C29.8915 10.6124 28.116 11.5534 26.3376 11.5534C24.439 11.5534 23.1302 10.3506 23.1302 8.42503C23.1302 5.90487 25.2895 3.70656 28.1933 3.70656C29.439 3.7202 31.1716 4.0093 31.1716 5.35666C31.1716 6.4149 29.6882 7.44588 26.0885 6.89766C26.0741 7.05312 26.0656 7.20586 26.0656 7.35587C26.0656 8.96233 26.8874 9.77238 28.1188 9.80238H28.116ZM28.1933 4.00112C27.0764 4.00112 26.2832 5.17119 26.0999 6.59491C28.0845 6.67128 28.9207 5.60213 28.9207 4.72117C28.9207 4.20022 28.7088 4.00112 28.1904 4.00112H28.1933ZM27.6778 3.17198L27.5862 3.00015C29.3789 1.52461 29.8972 0.621826 30.6418 0.621826C30.931 0.621826 31.1429 0.840021 31.1429 1.11276C31.1429 1.86554 29.7913 2.06737 27.6778 3.16925V3.17198Z" fill="white"></path><path d="M34.82 10.5634C34.6166 11.1525 34.1184 11.5152 33.2077 11.5534C32.1882 11.5534 31.352 11.0461 31.6126 9.46965L32.5319 4.12115H31.3978L31.4293 3.82386H32.0994C33.1647 3.82386 33.4626 3.88659 34.0009 3.37656C34.21 3.18018 34.5766 2.67015 34.6997 2.02102L35.639 1.82465L35.2839 3.76658H36.9019L36.8102 4.06115H35.2037L34.3475 9.46965C34.2558 10.0479 34.1413 10.7406 34.8228 10.5634" fill="white"></path><path d="M44.5795 6.99317C44.5795 9.39604 42.3 11.5534 39.5938 11.5534C37.4202 11.5534 35.9139 10.1788 35.9139 8.26688C35.9139 5.79037 38.1476 3.7066 40.8853 3.7066C43.0732 3.7066 44.5795 5.08123 44.5795 6.99317ZM41.7988 5.50126C41.7988 4.64757 41.647 4.00117 40.8853 4.00117C39.2129 4.00117 38.6974 8.28052 38.6974 9.78606C38.6974 10.6398 38.8406 11.248 39.588 11.248C41.2748 11.248 41.7988 7.21136 41.7988 5.50126Z" fill="white"></path><path d="M53.0675 10.5634C53.0675 10.5634 52.8241 11.5398 51.4495 11.5398C50.5933 11.5398 49.8172 11.308 49.8544 9.95242C49.3161 10.9998 48.2135 11.5534 47.0566 11.5534C45.5675 11.5534 44.7599 10.4543 44.7599 8.93236C44.7599 6.41221 46.9478 3.70659 49.9289 3.70659C50.2611 3.70659 50.5875 3.79659 50.8138 3.88114L51.04 2.28832C51.1173 1.76738 51.2834 0.897327 50.6133 0.897327C50.3699 0.897327 50.158 1.01188 49.8831 1.20007L49.8229 1.08552C50.599 0.490939 51.7073 0 52.6351 0C54.1099 0 53.941 1.26008 53.8207 1.98285L52.5893 9.46694C52.4976 10.0452 52.3917 10.7379 53.0733 10.5606M50.5389 5.48488C50.7365 4.31208 50.5847 4.05843 49.9174 4.05843C48.4569 4.05843 47.6351 7.36681 47.6351 9.2351C47.6351 10.1897 47.7868 10.7707 48.4569 10.7707C49.0583 10.7707 49.6597 9.82423 49.8573 9.30329L50.5417 5.48761L50.5389 5.48488Z" fill="white"></path><path d="M62.5149 6.99317C62.5149 9.39604 60.2354 11.5534 57.5292 11.5534C55.3556 11.5534 53.8493 10.1788 53.8493 8.26688C53.8493 5.79037 56.083 3.7066 58.8207 3.7066C61.0086 3.7066 62.5149 5.08123 62.5149 6.99317ZM59.7342 5.50126C59.7342 4.64757 59.5853 4.06117 58.8236 4.06117C57.1512 4.06117 56.6328 8.28324 56.6328 9.78879C56.6328 10.6425 56.7789 11.2507 57.5235 11.2507C59.2102 11.2507 59.7314 7.21409 59.7314 5.50399L59.7342 5.50126Z" fill="white"></path><path d="M25.1234 36.4441C22.9241 36.4441 20.6217 35.154 21.1801 31.1365L22.8267 21.0286C23.1561 18.743 23.3909 17.6493 22.5661 17.8593C21.8388 18.042 19.9716 20.7176 18.4968 23.2869L16.6955 34.8049C15.2178 34.6576 12.9899 34.5403 10.4555 34.7749L12.5345 21.0286C12.8639 18.743 13.0013 17.7775 12.1508 17.8593C11.4435 17.9275 9.59351 20.674 8.10438 23.2869L6.74984 33.1057C5.56713 32.9502 2.60032 32.8302 0.55849 33.0675L2.25095 20.3304C2.41418 19.0403 2.8466 17.6329 1.91875 17.6329C1.39183 17.6329 0.839134 17.9793 0.249209 18.4566L0.00292969 17.9275C1.6782 16.4165 3.94054 15.2791 6.2086 15.2791C8.11297 15.2791 9.22982 16.5338 8.54253 20.1449L8.23897 21.7213C10.865 17.0656 13.4309 15.1346 15.8679 15.1346C18.7574 15.1346 19.3502 17.4202 18.8891 20.6631L18.7689 21.5195C21.3548 17.0111 23.8806 15.1346 26.2804 15.1346C29.1699 15.1346 29.7627 17.4202 29.3016 20.6631L27.592 31.1392C27.2197 33.4221 26.8503 34.7776 28.2821 34.4558C28.3566 35.0612 27.6893 36.4468 25.1263 36.4468L25.1234 36.4441Z" fill="white"></path><path d="M93.002 15.3582C93.0392 15.4946 93.0764 15.631 93.1137 15.7701C93.1767 15.631 93.2454 15.4919 93.3199 15.3582C93.3943 15.2246 93.4716 15.0909 93.5576 14.96L97.5123 8.76054C97.5582 8.68417 97.6068 8.62689 97.6584 8.58325C97.7071 8.54234 97.7615 8.50961 97.8159 8.49052C97.8703 8.47143 97.9333 8.45779 98.002 8.45234C98.0708 8.44688 98.1481 8.44415 98.2397 8.44415H99.7919L98.3886 19.2966H96.5931L97.5066 12.2271C97.5209 12.0962 97.5467 11.9544 97.5782 11.7989C97.6097 11.6434 97.6441 11.4852 97.6813 11.3271L93.7637 17.5265C93.675 17.6656 93.5633 17.772 93.4287 17.8429C93.2941 17.9138 93.148 17.9493 92.9905 17.9493H92.707C92.5495 17.9493 92.4121 17.9138 92.2947 17.8429C92.1772 17.772 92.0913 17.6683 92.0398 17.5265L89.6915 11.3516C89.6858 11.5071 89.6801 11.6571 89.6715 11.8016C89.6629 11.9462 89.6514 12.0798 89.6371 12.1998L88.7379 19.2994H86.9338L88.337 8.44688H89.8748C89.9636 8.44688 90.0438 8.44688 90.1125 8.45506C90.1812 8.46052 90.2414 8.47143 90.2929 8.49325C90.3445 8.51234 90.3903 8.54507 90.4275 8.58598C90.4647 8.62962 90.4991 8.6869 90.5306 8.76326L92.8874 14.9627C92.9361 15.0936 92.9762 15.2246 93.0134 15.3609L93.002 15.3582Z" fill="white"></path><path d="M107.123 13.3863C107.123 13.7327 107.051 14.0463 106.905 14.3327C106.762 14.6164 106.502 14.8727 106.129 15.0991C105.757 15.3255 105.25 15.5191 104.611 15.6801C103.973 15.8437 103.16 15.9719 102.172 16.0674V16.1655C102.172 17.3765 102.71 17.982 103.787 17.982C104.019 17.982 104.222 17.9602 104.402 17.9193C104.58 17.8756 104.737 17.8265 104.872 17.7665C105.007 17.7065 105.127 17.6384 105.236 17.5647C105.345 17.4883 105.445 17.4229 105.536 17.3629C105.628 17.3029 105.72 17.2511 105.809 17.2101C105.897 17.1692 105.995 17.1474 106.101 17.1474C106.164 17.1474 106.227 17.1611 106.29 17.1883C106.353 17.2156 106.404 17.2565 106.447 17.3111L106.943 17.8811C106.665 18.1457 106.39 18.3775 106.124 18.5711C105.854 18.7675 105.582 18.9257 105.305 19.0512C105.027 19.1766 104.732 19.2694 104.422 19.3294C104.113 19.3894 103.772 19.4194 103.406 19.4194C102.933 19.4194 102.504 19.343 102.12 19.1903C101.736 19.0375 101.407 18.8221 101.135 18.5439C100.863 18.2657 100.651 17.9302 100.502 17.5374C100.353 17.1447 100.279 16.7056 100.279 16.2201C100.279 15.8137 100.325 15.4182 100.416 15.0282C100.508 14.6382 100.64 14.2672 100.814 13.9181C100.989 13.569 101.201 13.2445 101.453 12.9499C101.705 12.6553 101.991 12.3989 102.309 12.1835C102.627 11.968 102.976 11.8016 103.357 11.6816C103.738 11.5616 104.148 11.5016 104.583 11.5016C105.018 11.5016 105.379 11.5589 105.697 11.6734C106.015 11.788 106.281 11.938 106.493 12.1207C106.705 12.3035 106.865 12.508 106.968 12.7317C107.074 12.9581 107.126 13.1763 107.126 13.3917L107.123 13.3863ZM104.468 12.7862C104.205 12.7862 103.961 12.8381 103.735 12.9417C103.509 13.0453 103.306 13.1872 103.125 13.3726C102.945 13.5581 102.787 13.779 102.653 14.0354C102.518 14.2918 102.412 14.5754 102.335 14.8809C102.985 14.7964 103.509 14.7036 103.907 14.6027C104.302 14.5018 104.611 14.3927 104.829 14.2727C105.047 14.1527 105.193 14.0245 105.262 13.8909C105.333 13.7572 105.368 13.6099 105.368 13.4545C105.368 13.3808 105.35 13.3017 105.316 13.2226C105.282 13.1435 105.23 13.0726 105.158 13.0099C105.087 12.9472 104.995 12.8953 104.884 12.8517C104.772 12.8081 104.632 12.789 104.471 12.789L104.468 12.7862ZM107.464 8.33506L105.399 10.2934C105.293 10.3943 105.193 10.4597 105.098 10.4952C105.004 10.5307 104.886 10.547 104.743 10.547H103.624L104.884 8.72236C104.972 8.59144 105.073 8.49598 105.178 8.43052C105.287 8.36507 105.439 8.33234 105.64 8.33234H107.461L107.464 8.33506Z" fill="white"></path><path d="M108.5 17.7311V17.6084C108.5 17.562 108.503 17.4911 108.512 17.3983C108.52 17.3056 108.532 17.1829 108.552 17.0301C108.569 16.8774 108.595 16.681 108.626 16.441L109.076 12.9881H108.311C108.223 12.9881 108.148 12.9608 108.094 12.909C108.039 12.8572 108.011 12.7781 108.011 12.6717C108.011 12.6662 108.011 12.6581 108.014 12.6417C108.016 12.6253 108.019 12.5926 108.025 12.5408C108.031 12.489 108.039 12.4099 108.054 12.3035C108.065 12.1971 108.085 12.0498 108.105 11.8616L109.334 11.6598L109.981 9.55969C110.012 9.45877 110.067 9.3824 110.141 9.32786C110.216 9.27331 110.31 9.24603 110.422 9.24603H111.462L111.147 11.6707H113.1L112.933 12.9908H110.972L110.539 16.3456C110.514 16.5501 110.494 16.7138 110.479 16.8338C110.468 16.9538 110.456 17.0465 110.448 17.1147C110.439 17.1829 110.433 17.2292 110.433 17.2565C110.433 17.2838 110.431 17.3029 110.431 17.3138C110.431 17.5047 110.479 17.6547 110.577 17.7638C110.674 17.8729 110.811 17.9302 110.989 17.9302C111.101 17.9302 111.195 17.9166 111.273 17.8893C111.35 17.862 111.419 17.832 111.479 17.802C111.536 17.772 111.588 17.742 111.633 17.7147C111.679 17.6875 111.722 17.6738 111.762 17.6738C111.819 17.6738 111.865 17.6875 111.9 17.7147C111.934 17.742 111.963 17.7829 111.991 17.8375L112.409 18.7375C112.12 18.9639 111.799 19.133 111.447 19.2475C111.095 19.3621 110.74 19.4194 110.382 19.4194C109.809 19.4194 109.357 19.2721 109.022 18.9775C108.687 18.683 108.515 18.2684 108.498 17.7311H108.5Z" fill="white"></path><path d="M116.381 19.4112C115.935 19.4112 115.522 19.3403 115.141 19.1984C114.76 19.0566 114.431 18.8466 114.156 18.5711C113.881 18.2956 113.664 17.9574 113.506 17.5592C113.349 17.1583 113.268 16.7001 113.268 16.1873C113.268 15.5218 113.38 14.9027 113.604 14.3272C113.827 13.7517 114.13 13.2553 114.517 12.8353C114.904 12.4153 115.353 12.0853 115.869 11.8453C116.384 11.6052 116.934 11.4852 117.515 11.4852C117.962 11.4852 118.375 11.5561 118.755 11.698C119.136 11.8398 119.466 12.0498 119.743 12.3253C120.021 12.6008 120.239 12.939 120.396 13.3372C120.554 13.7381 120.634 14.1963 120.634 14.7091C120.634 15.3691 120.522 15.9855 120.296 16.5583C120.07 17.131 119.763 17.6301 119.377 18.0529C118.99 18.4757 118.541 18.8084 118.025 19.0511C117.51 19.2939 116.963 19.4139 116.378 19.4139L116.381 19.4112ZM116.556 17.9847C116.883 17.9847 117.175 17.8974 117.438 17.7174C117.702 17.5401 117.925 17.3029 118.111 17.0056C118.297 16.7083 118.44 16.3619 118.541 15.9664C118.641 15.5709 118.69 15.1564 118.69 14.72C118.69 14.0954 118.578 13.6345 118.354 13.3399C118.131 13.0453 117.793 12.898 117.341 12.898C117.014 12.898 116.722 12.9853 116.459 13.1599C116.195 13.3344 115.972 13.5717 115.789 13.8717C115.605 14.1718 115.462 14.5209 115.362 14.9136C115.262 15.3091 115.213 15.7264 115.213 16.1655C115.213 16.7901 115.325 17.251 115.545 17.5429C115.766 17.8347 116.101 17.982 116.553 17.982L116.556 17.9847Z" fill="white"></path><path d="M126.963 19.2994C126.725 19.2994 126.562 19.2475 126.467 19.1412C126.373 19.0348 126.327 18.9039 126.327 18.743L126.39 17.6165C126.001 18.1675 125.565 18.6039 125.081 18.9257C124.597 19.2475 124.082 19.4085 123.538 19.4085C123.203 19.4085 122.896 19.3485 122.621 19.2312C122.346 19.1139 122.112 18.9366 121.917 18.7021C121.722 18.4675 121.573 18.1702 121.467 17.8102C121.361 17.4502 121.31 17.0247 121.31 16.5337C121.31 16.0974 121.358 15.6719 121.453 15.2546C121.548 14.8373 121.682 14.4391 121.854 14.0654C122.026 13.689 122.232 13.3454 122.472 13.029C122.71 12.7126 122.979 12.4426 123.271 12.2108C123.566 11.9817 123.879 11.8016 124.214 11.6707C124.546 11.5398 124.892 11.4743 125.25 11.4743C125.608 11.4743 125.94 11.5371 126.235 11.6625C126.53 11.788 126.788 11.9571 127.009 12.1726L127.536 8.14142H129.443L127.999 19.2939H126.969L126.963 19.2994ZM124.291 17.9547C124.5 17.9547 124.718 17.8866 124.938 17.7475C125.159 17.6111 125.371 17.4202 125.577 17.1774C125.783 16.9347 125.972 16.6483 126.15 16.321C126.324 15.9937 126.476 15.6391 126.602 15.26L126.845 13.3917C126.668 13.2063 126.462 13.0754 126.23 13.0017C125.998 12.9253 125.771 12.8899 125.551 12.8899C125.204 12.8899 124.889 12.9935 124.606 13.1981C124.322 13.4026 124.079 13.6699 123.876 14C123.672 14.33 123.518 14.7009 123.406 15.1155C123.294 15.5273 123.24 15.9419 123.24 16.3565C123.24 16.8965 123.332 17.2974 123.515 17.562C123.698 17.8238 123.956 17.9547 124.288 17.9547H124.291Z" fill="white"></path><path d="M132.911 19.4112C132.464 19.4112 132.052 19.3403 131.671 19.1984C131.29 19.0566 130.961 18.8466 130.686 18.5711C130.411 18.2956 130.193 17.9574 130.036 17.5592C129.878 17.1583 129.798 16.7001 129.798 16.1873C129.798 15.5218 129.91 14.9027 130.133 14.3272C130.356 13.7517 130.66 13.2553 131.046 12.8353C131.433 12.4153 131.883 12.0853 132.398 11.8453C132.914 11.6052 133.463 11.4852 134.045 11.4852C134.491 11.4852 134.904 11.5561 135.285 11.698C135.666 11.8398 135.995 12.0498 136.273 12.3253C136.55 12.6008 136.768 12.939 136.926 13.3372C137.083 13.7381 137.163 14.1963 137.163 14.7091C137.163 15.3691 137.052 15.9855 136.825 16.5583C136.599 17.131 136.293 17.6301 135.906 18.0529C135.52 18.4757 135.07 18.8084 134.554 19.0511C134.039 19.2939 133.492 19.4139 132.908 19.4139L132.911 19.4112ZM133.085 17.9847C133.412 17.9847 133.704 17.8974 133.967 17.7174C134.231 17.5401 134.454 17.3029 134.64 17.0056C134.827 16.7083 134.97 16.3619 135.07 15.9664C135.17 15.5709 135.219 15.1564 135.219 14.72C135.219 14.0954 135.107 13.6345 134.884 13.3399C134.66 13.0453 134.323 12.898 133.87 12.898C133.544 12.898 133.251 12.9853 132.988 13.1599C132.725 13.3344 132.501 13.5717 132.318 13.8717C132.135 14.1718 131.991 14.5209 131.891 14.9136C131.791 15.3091 131.742 15.7264 131.742 16.1655C131.742 16.7901 131.854 17.251 132.075 17.5429C132.295 17.8347 132.63 17.982 133.083 17.982L133.085 17.9847Z" fill="white"></path><path d="M147.166 15.3582C147.204 15.4946 147.241 15.631 147.278 15.7701C147.341 15.631 147.41 15.4919 147.484 15.3582C147.559 15.2246 147.636 15.0909 147.722 14.96L151.677 8.76054C151.722 8.68417 151.771 8.62689 151.823 8.58325C151.871 8.54234 151.926 8.50961 151.98 8.49052C152.035 8.47143 152.098 8.45779 152.166 8.45234C152.235 8.44688 152.312 8.44415 152.404 8.44415H153.956L152.553 19.2966H150.757L151.671 12.2271C151.685 12.0962 151.711 11.9544 151.743 11.7989C151.774 11.6434 151.808 11.4852 151.846 11.3271L147.928 17.5265C147.839 17.6656 147.728 17.772 147.593 17.8429C147.458 17.9138 147.312 17.9493 147.155 17.9493H146.871C146.714 17.9493 146.576 17.9138 146.459 17.8429C146.342 17.772 146.256 17.6683 146.204 17.5265L143.856 11.3516C143.85 11.5071 143.844 11.6571 143.836 11.8016C143.827 11.9462 143.816 12.0798 143.801 12.1998L142.902 19.2994H141.098L142.501 8.44688H144.039C144.128 8.44688 144.208 8.44688 144.277 8.45506C144.346 8.46052 144.406 8.47143 144.457 8.49325C144.509 8.51234 144.555 8.54507 144.592 8.58598C144.629 8.62962 144.663 8.6869 144.695 8.76326L147.052 14.9627C147.1 15.0936 147.141 15.2246 147.178 15.3609L147.166 15.3582Z" fill="white"></path><path d="M160.812 19.2994H159.787C159.549 19.2994 159.386 19.2476 159.291 19.1412C159.197 19.0348 159.148 18.9039 159.148 18.743L159.211 17.6929C158.853 18.2248 158.452 18.6421 158.005 18.9503C157.559 19.2585 157.069 19.4112 156.531 19.4112C156.227 19.4112 155.941 19.3539 155.677 19.2394C155.411 19.1248 155.182 18.953 154.984 18.7266C154.787 18.5002 154.632 18.2139 154.52 17.8702C154.409 17.5265 154.351 17.1256 154.351 16.6647C154.351 16.2037 154.411 15.7564 154.532 15.32C154.652 14.8837 154.824 14.4745 155.047 14.0927C155.271 13.7109 155.54 13.359 155.855 13.0372C156.17 12.7181 156.522 12.4426 156.914 12.2108C157.307 11.9817 157.728 11.8017 158.183 11.6735C158.638 11.5453 159.117 11.4825 159.621 11.4825C159.984 11.4825 160.348 11.5071 160.712 11.5589C161.075 11.6107 161.436 11.698 161.788 11.8289L160.812 19.2967V19.2994ZM157.298 17.8948C157.513 17.8948 157.725 17.8238 157.934 17.6847C158.14 17.5456 158.338 17.352 158.521 17.1038C158.704 16.8556 158.876 16.5638 159.034 16.2283C159.191 15.8928 159.328 15.5328 159.443 15.1482L159.749 12.8217C159.609 12.8081 159.477 12.7999 159.354 12.7999C158.919 12.7999 158.515 12.8954 158.14 13.0863C157.768 13.2772 157.444 13.5336 157.172 13.8554C156.9 14.1773 156.685 14.5536 156.531 14.9818C156.376 15.4101 156.299 15.8601 156.299 16.3374C156.299 16.8774 156.387 17.2729 156.568 17.5238C156.745 17.7747 156.992 17.8975 157.301 17.8975L157.298 17.8948Z" fill="white"></path><path d="M168.982 13.8281C168.982 14.0572 168.956 14.2645 168.902 14.4473C168.85 14.63 168.784 14.7991 168.71 14.9546C168.633 15.11 168.55 15.2546 168.461 15.3937C168.372 15.5301 168.286 15.6719 168.209 15.8137C168.129 15.9555 168.066 16.1056 168.017 16.2637C167.968 16.4219 167.943 16.5965 167.943 16.7847C167.943 16.9892 167.985 17.1774 168.077 17.352C168.166 17.5238 168.263 17.7011 168.369 17.8811C168.475 18.0611 168.573 18.2548 168.661 18.4593C168.75 18.6639 168.796 18.9012 168.796 19.1712C168.796 19.5503 168.707 19.9131 168.527 20.2567C168.349 20.6004 168.091 20.9004 167.754 21.1568C167.418 21.4131 167.009 21.6177 166.525 21.7677C166.041 21.9177 165.494 21.9941 164.887 21.9941C164.389 21.9941 163.939 21.945 163.544 21.8468C163.146 21.7486 162.808 21.6122 162.527 21.4377C162.247 21.2631 162.032 21.0559 161.88 20.8186C161.731 20.5813 161.657 20.3194 161.657 20.0358C161.657 19.6103 161.768 19.253 161.995 18.9639C162.221 18.6748 162.513 18.4402 162.868 18.263C163.226 18.0857 163.627 17.9575 164.071 17.8811C164.515 17.8047 164.959 17.7638 165.4 17.7638C165.614 17.7638 165.826 17.772 166.03 17.7911C166.236 17.8075 166.428 17.832 166.614 17.862C166.594 17.7829 166.577 17.7011 166.562 17.622C166.551 17.5429 166.542 17.4556 166.542 17.3656C166.542 17.0765 166.625 16.7547 166.794 16.4056C166.594 16.5365 166.367 16.6347 166.115 16.7056C165.863 16.7765 165.557 16.812 165.202 16.812C164.898 16.812 164.606 16.7656 164.331 16.6701C164.056 16.5747 163.813 16.4301 163.604 16.2337C163.395 16.0374 163.226 15.7946 163.103 15.5028C162.98 15.211 162.917 14.87 162.917 14.4773C162.917 14.0845 162.991 13.7354 163.137 13.3781C163.283 13.0208 163.501 12.699 163.79 12.4181C164.079 12.1344 164.437 11.908 164.861 11.7389C165.288 11.5698 165.78 11.4825 166.342 11.4825C166.642 11.4825 166.926 11.5153 167.198 11.5835C167.467 11.6516 167.716 11.7498 167.943 11.8808H170.205L170.119 12.4808C170.099 12.6008 170.056 12.7044 169.996 12.789C169.936 12.8735 169.847 12.9308 169.732 12.9608L168.905 13.1708C168.931 13.2717 168.951 13.3754 168.965 13.4872C168.979 13.599 168.985 13.7136 168.985 13.8336L168.982 13.8281ZM167.02 19.3294C167.02 19.2585 167.018 19.1903 167.009 19.1221C167 19.0539 166.992 18.9912 166.98 18.9312C166.697 18.8875 166.436 18.8548 166.196 18.833C165.958 18.8139 165.732 18.803 165.523 18.803C165.165 18.803 164.858 18.8303 164.603 18.8848C164.349 18.9394 164.14 19.013 163.973 19.103C163.807 19.193 163.687 19.2994 163.61 19.4194C163.532 19.5394 163.495 19.6676 163.495 19.8012C163.495 20.1012 163.621 20.3304 163.873 20.4831C164.125 20.6386 164.515 20.7149 165.039 20.7149C165.334 20.7149 165.6 20.6795 165.843 20.6086C166.084 20.5376 166.293 20.4394 166.465 20.3167C166.64 20.1913 166.774 20.044 166.872 19.8749C166.969 19.7058 167.018 19.523 167.018 19.3267L167.02 19.3294ZM165.752 15.691C165.989 15.691 166.196 15.6392 166.373 15.5328C166.551 15.4264 166.703 15.29 166.826 15.1209C166.949 14.9518 167.043 14.7582 167.106 14.5455C167.169 14.3327 167.201 14.1172 167.201 13.8963C167.201 13.5199 167.109 13.2336 166.926 13.0345C166.743 12.8354 166.473 12.7344 166.121 12.7344C165.884 12.7344 165.677 12.7835 165.5 12.8817C165.322 12.9799 165.17 13.1081 165.05 13.2717C164.93 13.4354 164.838 13.6209 164.778 13.8309C164.718 14.0409 164.686 14.2591 164.686 14.4827C164.686 14.8673 164.778 15.1646 164.959 15.3746C165.139 15.5846 165.402 15.691 165.749 15.691H165.752Z" fill="white"></path><path d="M170.259 19.2994L171.244 11.5917H172.23C172.419 11.5917 172.573 11.6326 172.693 11.7117C172.814 11.7908 172.874 11.9189 172.874 12.0935C172.874 12.129 172.874 12.189 172.865 12.2735C172.86 12.3581 172.854 12.4917 172.851 12.6744C172.845 12.8572 172.834 13.1136 172.819 13.4436C173.152 12.8381 173.513 12.3717 173.908 12.0417C174.303 11.7117 174.712 11.5453 175.136 11.5453C175.351 11.5453 175.569 11.5889 175.789 11.6789L175.434 13.449C175.171 13.3427 174.921 13.2908 174.687 13.2908C174.22 13.2908 173.81 13.5036 173.458 13.9291C173.106 14.3545 172.817 15.02 172.59 15.9256L172.164 19.2939H170.256L170.259 19.2994Z" fill="white"></path><path d="M182.023 19.2994H180.998C180.761 19.2994 180.597 19.2476 180.503 19.1412C180.408 19.0348 180.36 18.9039 180.36 18.743L180.423 17.6929C180.065 18.2248 179.664 18.6421 179.217 18.9503C178.77 19.2585 178.281 19.4112 177.742 19.4112C177.439 19.4112 177.152 19.3539 176.889 19.2394C176.622 19.1248 176.393 18.953 176.196 18.7266C175.998 18.5002 175.844 18.2139 175.732 17.8702C175.62 17.5265 175.563 17.1256 175.563 16.6647C175.563 16.2037 175.623 15.7564 175.743 15.32C175.864 14.8837 176.035 14.4745 176.259 14.0927C176.482 13.7109 176.751 13.359 177.066 13.0372C177.381 12.7181 177.734 12.4426 178.126 12.2108C178.518 11.9817 178.939 11.8017 179.395 11.6735C179.85 11.5453 180.328 11.4825 180.832 11.4825C181.196 11.4825 181.559 11.5071 181.923 11.5589C182.287 11.6107 182.648 11.698 183 11.8289L182.023 19.2967V19.2994ZM178.51 17.8948C178.724 17.8948 178.936 17.8238 179.145 17.6847C179.352 17.5456 179.549 17.352 179.732 17.1038C179.916 16.8556 180.088 16.5638 180.245 16.2283C180.403 15.8928 180.54 15.5328 180.655 15.1482L180.961 12.8217C180.821 12.8081 180.689 12.7999 180.566 12.7999C180.13 12.7999 179.727 12.8954 179.352 13.0863C178.979 13.2772 178.656 13.5336 178.384 13.8554C178.112 14.1773 177.897 14.5536 177.742 14.9818C177.588 15.4101 177.51 15.8601 177.51 16.3374C177.51 16.8774 177.599 17.2729 177.779 17.5238C177.957 17.7747 178.203 17.8975 178.512 17.8975L178.51 17.8948Z" fill="white"></path><path d="M86.4641 36.8586L87.7728 26.6362H88.758C88.9355 26.6362 89.0901 26.6716 89.2161 26.7453C89.3422 26.8189 89.4052 26.9362 89.4052 27.1026C89.4052 27.1326 89.4052 27.1871 89.3966 27.2635C89.3908 27.3426 89.3851 27.4626 89.3822 27.6317C89.3765 27.7981 89.3651 28.0354 89.3507 28.3408C89.7402 27.7844 90.1784 27.3453 90.6709 27.0153C91.1606 26.688 91.6818 26.5244 92.2259 26.5244C92.561 26.5244 92.8674 26.5844 93.1423 26.7016C93.4172 26.8189 93.652 26.9962 93.8468 27.2308C94.0415 27.4653 94.1904 27.7626 94.2964 28.1254C94.4023 28.4854 94.4539 28.9081 94.4539 29.3936C94.4539 29.83 94.4052 30.2555 94.3107 30.6755C94.2162 31.0955 94.0816 31.4937 93.9098 31.8674C93.738 32.2438 93.5289 32.5874 93.2912 32.9038C93.0535 33.2202 92.7843 33.493 92.4922 33.7221C92.1973 33.9512 91.8851 34.1312 91.5501 34.2621C91.215 34.393 90.8714 34.4585 90.5134 34.4585C90.1554 34.4585 89.8204 34.3985 89.5254 34.2757C89.2276 34.153 88.9727 33.9812 88.758 33.763L88.357 36.8613H86.467L86.4641 36.8586ZM91.467 27.9808C91.2522 27.9808 91.0346 28.049 90.8141 28.1881C90.5936 28.3245 90.3817 28.5154 90.1755 28.7581C89.9693 29.0009 89.7803 29.2872 89.6056 29.6173C89.4309 29.9473 89.2791 30.3019 89.1531 30.6837L88.9155 32.552C89.093 32.732 89.2963 32.8602 89.5254 32.9338C89.7545 33.0102 89.9808 33.0457 90.207 33.0457C90.5535 33.0457 90.8685 32.942 91.152 32.7375C91.4355 32.5329 91.6789 32.2656 91.8823 31.9356C92.0856 31.6056 92.2402 31.2346 92.3519 30.8201C92.4636 30.4082 92.518 29.9937 92.518 29.5791C92.518 29.039 92.4264 28.6381 92.2431 28.3736C92.0598 28.1117 91.8021 27.9808 91.4699 27.9808H91.467Z" fill="white"></path><path d="M101.49 34.3439H100.465C100.227 34.3439 100.064 34.2921 99.9694 34.1857C99.8749 34.0793 99.8262 33.9484 99.8262 33.7875L99.8892 32.7374C99.5312 33.2693 99.1303 33.6866 98.6836 33.9948C98.2368 34.303 97.7472 34.4557 97.2088 34.4557C96.9052 34.4557 96.6188 34.3985 96.3554 34.2839C96.0891 34.1694 95.86 33.9975 95.6624 33.7711C95.4648 33.5448 95.3101 33.2584 95.1984 32.9147C95.0868 32.5711 95.0295 32.1701 95.0295 31.7092C95.0295 31.2483 95.0896 30.801 95.2099 30.3646C95.3302 29.9282 95.502 29.5191 95.7254 29.1372C95.9487 28.7554 96.2179 28.4035 96.5329 28.0817C96.8479 27.7599 97.2002 27.4871 97.5925 27.2553C97.9848 27.0262 98.4058 26.8462 98.8611 26.718C99.3165 26.5898 99.7947 26.5271 100.299 26.5271C100.662 26.5271 101.026 26.5516 101.39 26.6034C101.753 26.6553 102.114 26.7425 102.467 26.8735L101.49 34.3412V34.3439ZM97.9762 32.9393C98.191 32.9393 98.4029 32.8684 98.612 32.7293C98.8182 32.5902 99.0158 32.3965 99.1991 32.1483C99.3823 31.9001 99.5542 31.6083 99.7117 31.2728C99.8692 30.9373 100.007 30.5773 100.121 30.1927L100.428 27.8662C100.287 27.8526 100.156 27.8444 100.032 27.8444C99.5971 27.8444 99.1933 27.9399 98.8182 28.1308C98.4459 28.3217 98.1223 28.5781 97.8502 28.8999C97.5782 29.2218 97.3634 29.5982 97.2088 30.0264C97.0541 30.4546 96.9768 30.9046 96.9768 31.3819C96.9768 31.9219 97.0656 32.3174 97.246 32.5683C97.4235 32.8193 97.6698 32.942 97.9791 32.942L97.9762 32.9393Z" fill="white"></path><path d="M103.294 34.3439L104.279 26.6362H105.264C105.453 26.6362 105.608 26.6771 105.728 26.7562C105.849 26.8353 105.909 26.9635 105.909 27.138C105.909 27.1735 105.909 27.2335 105.9 27.318C105.894 27.4026 105.889 27.5362 105.886 27.719C105.88 27.9017 105.869 28.1581 105.854 28.4881C106.187 27.8826 106.547 27.4162 106.943 27.0862C107.338 26.7562 107.747 26.5898 108.171 26.5898C108.386 26.5898 108.604 26.6335 108.824 26.7235L108.469 28.4936C108.205 28.3872 107.956 28.3354 107.721 28.3354C107.255 28.3354 106.845 28.5481 106.493 28.9736C106.141 29.3991 105.851 30.0646 105.625 30.9701L105.199 34.3385H103.291L103.294 34.3439Z" fill="white"></path><path d="M115.058 34.3439H114.033C113.795 34.3439 113.632 34.2921 113.538 34.1857C113.443 34.0793 113.394 33.9484 113.394 33.7875L113.458 32.7374C113.1 33.2693 112.699 33.6866 112.252 33.9948C111.805 34.303 111.315 34.4557 110.777 34.4557C110.474 34.4557 110.187 34.3985 109.924 34.2839C109.657 34.1694 109.428 33.9975 109.231 33.7711C109.033 33.5448 108.878 33.2584 108.767 32.9147C108.655 32.5711 108.598 32.1701 108.598 31.7092C108.598 31.2483 108.658 30.801 108.778 30.3646C108.898 29.9282 109.07 29.5191 109.294 29.1372C109.517 28.7554 109.786 28.4035 110.101 28.0817C110.416 27.7599 110.768 27.4871 111.161 27.2553C111.553 27.0262 111.974 26.8462 112.429 26.718C112.885 26.5898 113.363 26.5271 113.867 26.5271C114.231 26.5271 114.594 26.5516 114.958 26.6034C115.322 26.6553 115.683 26.7425 116.035 26.8735L115.058 34.3412V34.3439ZM111.545 32.9393C111.759 32.9393 111.971 32.8684 112.18 32.7293C112.386 32.5902 112.584 32.3965 112.767 32.1483C112.951 31.9001 113.122 31.6083 113.28 31.2728C113.437 30.9373 113.575 30.5773 113.689 30.1927L113.996 27.8662C113.856 27.8526 113.724 27.8444 113.601 27.8444C113.165 27.8444 112.762 27.9399 112.386 28.1308C112.014 28.3217 111.691 28.5781 111.419 28.8999C111.146 29.2218 110.932 29.5982 110.777 30.0264C110.622 30.4546 110.545 30.9046 110.545 31.3819C110.545 31.9219 110.634 32.3174 110.814 32.5683C110.992 32.8193 111.238 32.942 111.547 32.942L111.545 32.9393Z" fill="white"></path><path d="M126.86 25.4443C126.785 25.5452 126.714 25.6188 126.639 25.6652C126.565 25.7116 126.476 25.7361 126.37 25.7361C126.264 25.7361 126.158 25.6952 126.046 25.6161C125.935 25.537 125.806 25.447 125.651 25.3488C125.497 25.2506 125.319 25.1634 125.113 25.0815C124.904 25.0024 124.655 24.9615 124.36 24.9615C124.065 24.9615 123.816 25.0024 123.595 25.0815C123.375 25.1606 123.188 25.2725 123.039 25.4116C122.891 25.5507 122.776 25.717 122.702 25.908C122.624 26.0989 122.587 26.3034 122.587 26.5244C122.587 26.7453 122.65 26.9471 122.773 27.0971C122.896 27.2499 123.06 27.3835 123.257 27.4981C123.458 27.6126 123.687 27.7162 123.942 27.8063C124.199 27.8963 124.46 27.9917 124.726 28.0926C124.993 28.1935 125.253 28.3081 125.511 28.439C125.769 28.5699 125.998 28.7281 126.195 28.919C126.393 29.11 126.556 29.3391 126.679 29.6064C126.802 29.8737 126.865 30.1982 126.865 30.5773C126.865 31.1065 126.771 31.6083 126.576 32.0774C126.384 32.5465 126.109 32.9584 125.749 33.3129C125.388 33.6648 124.952 33.9457 124.44 34.153C123.927 34.3603 123.352 34.4639 122.71 34.4639C122.378 34.4639 122.054 34.4312 121.734 34.363C121.413 34.2948 121.112 34.1994 120.829 34.0739C120.545 33.9484 120.282 33.7984 120.041 33.6239C119.801 33.4493 119.589 33.2529 119.411 33.0375L120.136 32.1074C120.193 32.0365 120.267 31.9792 120.356 31.9356C120.445 31.892 120.534 31.8674 120.622 31.8674C120.706 31.8674 120.789 31.892 120.872 31.9438C120.955 31.9956 121.043 32.0556 121.141 32.1265C121.238 32.2002 121.344 32.2792 121.456 32.3665C121.568 32.4538 121.699 32.5329 121.845 32.6065C121.991 32.6802 122.157 32.7402 122.341 32.7893C122.524 32.8384 122.736 32.8656 122.979 32.8656C123.572 32.8656 124.039 32.7047 124.374 32.3856C124.709 32.0665 124.878 31.6219 124.878 31.0574C124.878 30.8064 124.818 30.6019 124.698 30.441C124.577 30.28 124.417 30.1464 124.216 30.0346C124.016 29.9255 123.79 29.8273 123.538 29.7455C123.286 29.6636 123.028 29.5764 122.762 29.4836C122.495 29.3909 122.238 29.2845 121.986 29.1618C121.734 29.0391 121.507 28.8809 121.307 28.6899C121.106 28.4963 120.946 28.2617 120.826 27.9808C120.706 27.6999 120.645 27.3562 120.645 26.9444C120.645 26.478 120.737 26.0307 120.917 25.5998C121.098 25.1688 121.358 24.7897 121.694 24.4624C122.029 24.1351 122.438 23.8733 122.919 23.6742C123.4 23.4778 123.942 23.3769 124.546 23.3769C124.855 23.3769 125.153 23.4069 125.439 23.4669C125.726 23.5269 125.992 23.6115 126.238 23.7233C126.485 23.8324 126.711 23.966 126.92 24.116C127.126 24.2688 127.306 24.4379 127.458 24.6233L126.851 25.4416L126.86 25.4443Z" fill="white"></path><path d="M134.52 28.4308C134.52 28.7772 134.449 29.0909 134.302 29.3773C134.159 29.6609 133.899 29.9173 133.526 30.1437C133.154 30.37 132.647 30.5637 132.009 30.7246C131.37 30.8883 130.557 31.0164 129.569 31.1119V31.2101C129.569 32.4211 130.107 33.0266 131.184 33.0266C131.416 33.0266 131.619 33.0047 131.8 32.9638C131.977 32.9202 132.135 32.8711 132.269 32.8111C132.404 32.7511 132.524 32.6829 132.633 32.6093C132.742 32.5329 132.842 32.4674 132.934 32.4074C133.025 32.3474 133.117 32.2956 133.206 32.2547C133.294 32.2138 133.392 32.192 133.498 32.192C133.561 32.192 133.624 32.2056 133.687 32.2329C133.75 32.2602 133.801 32.3011 133.844 32.3556L134.34 32.9257C134.062 33.1902 133.787 33.422 133.521 33.6157C133.251 33.8121 132.979 33.9703 132.702 34.0957C132.424 34.2212 132.129 34.3139 131.82 34.3739C131.51 34.4339 131.17 34.4639 130.803 34.4639C130.331 34.4639 129.901 34.3876 129.517 34.2348C129.133 34.0821 128.804 33.8666 128.532 33.5884C128.26 33.3102 128.048 32.9747 127.899 32.582C127.75 32.1892 127.676 31.7501 127.676 31.2646C127.676 30.8583 127.722 30.4628 127.813 30.0728C127.905 29.6827 128.037 29.3118 128.211 28.9627C128.386 28.6136 128.598 28.289 128.85 27.9944C129.102 27.6999 129.388 27.4435 129.706 27.228C130.024 27.0126 130.373 26.8462 130.754 26.7262C131.135 26.6062 131.545 26.5462 131.98 26.5462C132.415 26.5462 132.776 26.6034 133.094 26.718C133.412 26.8326 133.678 26.9826 133.89 27.1653C134.102 27.348 134.262 27.5526 134.365 27.7762C134.471 28.0026 134.523 28.2208 134.523 28.4363L134.52 28.4308ZM131.865 27.8308C131.602 27.8308 131.359 27.8826 131.132 27.9863C130.906 28.0899 130.703 28.2317 130.522 28.4172C130.342 28.6027 130.184 28.8236 130.05 29.08C129.915 29.3363 129.809 29.62 129.732 29.9255C130.382 29.8409 130.906 29.7482 131.304 29.6473C131.699 29.5464 132.009 29.4373 132.226 29.3172C132.444 29.1972 132.59 29.0691 132.659 28.9354C132.73 28.8018 132.765 28.6545 132.765 28.499C132.765 28.4254 132.747 28.3463 132.713 28.2672C132.679 28.1881 132.627 28.1172 132.556 28.0544C132.484 27.9917 132.392 27.9399 132.281 27.8963C132.169 27.8526 132.029 27.8335 131.868 27.8335L131.865 27.8308Z" fill="white"></path><path d="M135.15 34.3439L136.135 26.6362H137.12C137.321 26.6362 137.478 26.6825 137.593 26.7725C137.707 26.8625 137.768 27.0044 137.768 27.2007V27.2226C137.768 27.2226 137.768 27.2662 137.765 27.3235C137.765 27.3808 137.759 27.468 137.753 27.5853C137.748 27.7026 137.739 27.869 137.73 28.0844C138.094 27.558 138.486 27.168 138.913 26.9089C139.34 26.6525 139.784 26.5216 140.245 26.5216C140.743 26.5216 141.135 26.6798 141.422 26.9935C141.708 27.3098 141.874 27.7653 141.923 28.3599C142.301 27.7299 142.719 27.2662 143.18 26.9689C143.638 26.6716 144.139 26.5216 144.681 26.5216C145.285 26.5216 145.752 26.7153 146.078 27.1026C146.407 27.4898 146.571 28.049 146.571 28.7799C146.571 28.8808 146.571 28.9872 146.562 29.099C146.556 29.2109 146.548 29.3254 146.531 29.44L145.923 34.3412H144.002C144.108 33.4902 144.197 32.7702 144.271 32.1756C144.346 31.5837 144.406 31.0873 144.451 30.6891C144.497 30.2909 144.535 29.98 144.563 29.7536C144.589 29.5272 144.609 29.3554 144.623 29.2327C144.638 29.1099 144.643 29.0281 144.646 28.9845C144.649 28.9408 144.649 28.9081 144.649 28.8836C144.649 28.5836 144.598 28.3681 144.492 28.2344C144.386 28.1008 144.217 28.0353 143.979 28.0353C143.779 28.0353 143.584 28.0844 143.395 28.1853C143.206 28.2863 143.025 28.4308 142.856 28.6217C142.685 28.8127 142.527 29.0445 142.384 29.32C142.241 29.5954 142.112 29.9064 142.003 30.25L141.499 34.3412H139.583L140.19 29.44C140.202 29.3336 140.21 29.2354 140.219 29.1427C140.228 29.0499 140.23 28.9627 140.23 28.8836C140.23 28.5836 140.179 28.3681 140.076 28.2344C139.973 28.1008 139.804 28.0353 139.569 28.0353C139.363 28.0353 139.165 28.0872 138.97 28.1935C138.776 28.2999 138.592 28.4499 138.423 28.649C138.252 28.8454 138.094 29.0881 137.951 29.3691C137.808 29.6527 137.679 29.9691 137.57 30.3182L137.066 34.3412H135.159L135.15 34.3439Z" fill="white"></path><path d="M147.284 36.8586L148.592 26.6362H149.578C149.755 26.6362 149.91 26.6716 150.036 26.7453C150.162 26.8189 150.225 26.9362 150.225 27.1026C150.225 27.1326 150.225 27.1871 150.216 27.2635C150.21 27.3426 150.205 27.4626 150.202 27.6317C150.196 27.7981 150.185 28.0354 150.17 28.3408C150.56 27.7844 150.998 27.3453 151.49 27.0153C151.98 26.688 152.501 26.5244 153.045 26.5244C153.381 26.5244 153.687 26.5844 153.962 26.7016C154.237 26.8189 154.472 26.9962 154.666 27.2308C154.861 27.4653 155.01 27.7626 155.116 28.1254C155.222 28.4854 155.273 28.9081 155.273 29.3936C155.273 29.83 155.225 30.2555 155.13 30.6755C155.036 31.0955 154.901 31.4937 154.729 31.8674C154.558 32.2438 154.348 32.5874 154.111 32.9038C153.873 33.2202 153.604 33.493 153.312 33.7221C153.017 33.9512 152.705 34.1312 152.37 34.2621C152.035 34.393 151.691 34.4585 151.333 34.4585C150.975 34.4585 150.64 34.3985 150.345 34.2757C150.047 34.153 149.792 33.9812 149.578 33.763L149.177 36.8613H147.287L147.284 36.8586ZM152.287 27.9808C152.072 27.9808 151.854 28.049 151.634 28.1881C151.413 28.3272 151.201 28.5154 150.995 28.7581C150.789 29.0009 150.6 29.2872 150.425 29.6173C150.251 29.9473 150.099 30.3019 149.973 30.6837L149.735 32.552C149.913 32.732 150.116 32.8602 150.345 32.9338C150.574 33.0102 150.8 33.0457 151.027 33.0457C151.373 33.0457 151.688 32.942 151.972 32.7375C152.255 32.5329 152.499 32.2656 152.702 31.9356C152.905 31.6056 153.06 31.2346 153.171 30.8201C153.283 30.4082 153.338 29.9937 153.338 29.5791C153.338 29.039 153.246 28.6381 153.063 28.3736C152.879 28.1117 152.622 27.9808 152.289 27.9808H152.287Z" fill="white"></path><path d="M155.958 34.3439L156.943 26.6362H157.928C158.117 26.6362 158.272 26.6771 158.392 26.7562C158.512 26.8353 158.572 26.9635 158.572 27.138C158.572 27.1735 158.573 27.2335 158.564 27.318C158.558 27.4026 158.552 27.5362 158.55 27.719C158.544 27.9017 158.532 28.1581 158.518 28.4881C158.85 27.8826 159.211 27.4162 159.606 27.0862C160.001 26.7562 160.411 26.5898 160.835 26.5898C161.05 26.5898 161.267 26.6335 161.488 26.7235L161.133 28.4936C160.869 28.3872 160.62 28.3354 160.385 28.3354C159.918 28.3354 159.509 28.5481 159.157 28.9736C158.804 29.3991 158.515 30.0646 158.289 30.9701L157.862 34.3385H155.955L155.958 34.3439Z" fill="white"></path><path d="M168.195 28.4308C168.195 28.7772 168.123 29.0909 167.977 29.3773C167.834 29.6609 167.573 29.9173 167.201 30.1437C166.829 30.37 166.322 30.5637 165.683 30.7246C165.044 30.8883 164.231 31.0164 163.243 31.1119V31.2101C163.243 32.4211 163.782 33.0266 164.858 33.0266C165.09 33.0266 165.294 33.0047 165.474 32.9638C165.652 32.9202 165.809 32.8711 165.944 32.8111C166.078 32.7511 166.199 32.6829 166.307 32.6093C166.416 32.5329 166.516 32.4674 166.608 32.4074C166.7 32.3474 166.791 32.2956 166.88 32.2547C166.969 32.2138 167.066 32.192 167.172 32.192C167.235 32.192 167.298 32.2056 167.361 32.2329C167.424 32.2602 167.476 32.3011 167.519 32.3556L168.014 32.9257C167.736 33.1902 167.461 33.422 167.195 33.6157C166.926 33.8121 166.654 33.9703 166.376 34.0957C166.098 34.2212 165.803 34.3139 165.494 34.3739C165.185 34.4339 164.844 34.4639 164.477 34.4639C164.005 34.4639 163.575 34.3876 163.192 34.2348C162.808 34.0821 162.479 33.8666 162.207 33.5884C161.934 33.3102 161.723 32.9747 161.574 32.582C161.425 32.1892 161.35 31.7501 161.35 31.2646C161.35 30.8583 161.396 30.4628 161.488 30.0728C161.579 29.6827 161.711 29.3118 161.886 28.9627C162.06 28.6136 162.272 28.289 162.524 27.9944C162.776 27.6999 163.063 27.4435 163.381 27.228C163.699 27.0126 164.048 26.8462 164.429 26.7262C164.81 26.6062 165.219 26.5462 165.654 26.5462C166.09 26.5462 166.451 26.6034 166.768 26.718C167.086 26.8326 167.353 26.9826 167.565 27.1653C167.776 27.348 167.937 27.5526 168.04 27.7762C168.146 28.0026 168.197 28.2208 168.197 28.4363L168.195 28.4308ZM165.54 27.8308C165.276 27.8308 165.033 27.8826 164.807 27.9863C164.581 28.0899 164.377 28.2317 164.197 28.4172C164.016 28.6027 163.859 28.8236 163.724 29.08C163.59 29.3363 163.484 29.62 163.406 29.9255C164.056 29.8409 164.581 29.7482 164.979 29.6473C165.374 29.5464 165.683 29.4373 165.901 29.3172C166.118 29.1972 166.264 29.0691 166.333 28.9354C166.405 28.8018 166.439 28.6545 166.439 28.499C166.439 28.4254 166.422 28.3463 166.388 28.2672C166.353 28.1881 166.302 28.1172 166.23 28.0544C166.158 27.9917 166.067 27.9399 165.955 27.8963C165.843 27.8526 165.703 27.8335 165.543 27.8335L165.54 27.8308Z" fill="white"></path><path d="M93.002 15.3582C93.0392 15.4946 93.0764 15.631 93.1137 15.7701C93.1767 15.631 93.2454 15.4919 93.3199 15.3582C93.3943 15.2246 93.4716 15.0909 93.5576 14.96L97.5123 8.76054C97.5582 8.68417 97.6068 8.62689 97.6584 8.58325C97.7071 8.54234 97.7615 8.50961 97.8159 8.49052C97.8703 8.47143 97.9333 8.45779 98.002 8.45234C98.0708 8.44688 98.1481 8.44415 98.2397 8.44415H99.7919L98.3886 19.2966H96.5931L97.5066 12.2271C97.5209 12.0962 97.5467 11.9544 97.5782 11.7989C97.6097 11.6434 97.6441 11.4852 97.6813 11.3271L93.7637 17.5265C93.675 17.6656 93.5633 17.772 93.4287 17.8429C93.2941 17.9138 93.148 17.9493 92.9905 17.9493H92.707C92.5495 17.9493 92.4121 17.9138 92.2947 17.8429C92.1772 17.772 92.0913 17.6683 92.0398 17.5265L89.6915 11.3516C89.6858 11.5071 89.6801 11.6571 89.6715 11.8016C89.6629 11.9462 89.6514 12.0798 89.6371 12.1998L88.7379 19.2994H86.9338L88.337 8.44688H89.8748C89.9636 8.44688 90.0438 8.44688 90.1125 8.45506C90.1812 8.46052 90.2414 8.47143 90.2929 8.49325C90.3445 8.51234 90.3903 8.54507 90.4275 8.58598C90.4647 8.62962 90.4991 8.6869 90.5306 8.76326L92.8874 14.9627C92.9361 15.0936 92.9762 15.2246 93.0134 15.3609L93.002 15.3582Z" fill="white"></path><path d="M107.123 13.3863C107.123 13.7327 107.051 14.0463 106.905 14.3327C106.762 14.6164 106.502 14.8727 106.129 15.0991C105.757 15.3255 105.25 15.5191 104.611 15.6801C103.973 15.8437 103.16 15.9719 102.172 16.0674V16.1655C102.172 17.3765 102.71 17.982 103.787 17.982C104.019 17.982 104.222 17.9602 104.402 17.9193C104.58 17.8756 104.737 17.8265 104.872 17.7665C105.007 17.7065 105.127 17.6384 105.236 17.5647C105.345 17.4883 105.445 17.4229 105.536 17.3629C105.628 17.3029 105.72 17.2511 105.809 17.2101C105.897 17.1692 105.995 17.1474 106.101 17.1474C106.164 17.1474 106.227 17.1611 106.29 17.1883C106.353 17.2156 106.404 17.2565 106.447 17.3111L106.943 17.8811C106.665 18.1457 106.39 18.3775 106.124 18.5711C105.854 18.7675 105.582 18.9257 105.305 19.0512C105.027 19.1766 104.732 19.2694 104.422 19.3294C104.113 19.3894 103.772 19.4194 103.406 19.4194C102.933 19.4194 102.504 19.343 102.12 19.1903C101.736 19.0375 101.407 18.8221 101.135 18.5439C100.863 18.2657 100.651 17.9302 100.502 17.5374C100.353 17.1447 100.279 16.7056 100.279 16.2201C100.279 15.8137 100.325 15.4182 100.416 15.0282C100.508 14.6382 100.64 14.2672 100.814 13.9181C100.989 13.569 101.201 13.2445 101.453 12.9499C101.705 12.6553 101.991 12.3989 102.309 12.1835C102.627 11.968 102.976 11.8016 103.357 11.6816C103.738 11.5616 104.148 11.5016 104.583 11.5016C105.018 11.5016 105.379 11.5589 105.697 11.6734C106.015 11.788 106.281 11.938 106.493 12.1207C106.705 12.3035 106.865 12.508 106.968 12.7317C107.074 12.9581 107.126 13.1763 107.126 13.3917L107.123 13.3863ZM104.468 12.7862C104.205 12.7862 103.961 12.8381 103.735 12.9417C103.509 13.0453 103.306 13.1872 103.125 13.3726C102.945 13.5581 102.787 13.779 102.653 14.0354C102.518 14.2918 102.412 14.5754 102.335 14.8809C102.985 14.7964 103.509 14.7036 103.907 14.6027C104.302 14.5018 104.611 14.3927 104.829 14.2727C105.047 14.1527 105.193 14.0245 105.262 13.8909C105.333 13.7572 105.368 13.6099 105.368 13.4545C105.368 13.3808 105.35 13.3017 105.316 13.2226C105.282 13.1435 105.23 13.0726 105.158 13.0099C105.087 12.9472 104.995 12.8953 104.884 12.8517C104.772 12.8081 104.632 12.789 104.471 12.789L104.468 12.7862ZM107.464 8.33506L105.399 10.2934C105.293 10.3943 105.193 10.4597 105.098 10.4952C105.004 10.5307 104.886 10.547 104.743 10.547H103.624L104.884 8.72236C104.972 8.59144 105.073 8.49598 105.178 8.43052C105.287 8.36507 105.439 8.33234 105.64 8.33234H107.461L107.464 8.33506Z" fill="white"></path><path d="M108.5 17.7311V17.6084C108.5 17.562 108.503 17.4911 108.512 17.3983C108.52 17.3056 108.532 17.1829 108.552 17.0301C108.569 16.8774 108.595 16.681 108.626 16.441L109.076 12.9881H108.311C108.223 12.9881 108.148 12.9608 108.094 12.909C108.039 12.8572 108.011 12.7781 108.011 12.6717C108.011 12.6662 108.011 12.6581 108.014 12.6417C108.016 12.6253 108.019 12.5926 108.025 12.5408C108.031 12.489 108.039 12.4099 108.054 12.3035C108.065 12.1971 108.085 12.0498 108.105 11.8616L109.334 11.6598L109.981 9.55969C110.012 9.45877 110.067 9.3824 110.141 9.32786C110.216 9.27331 110.31 9.24603 110.422 9.24603H111.462L111.147 11.6707H113.1L112.933 12.9908H110.972L110.539 16.3456C110.514 16.5501 110.494 16.7138 110.479 16.8338C110.468 16.9538 110.456 17.0465 110.448 17.1147C110.439 17.1829 110.433 17.2292 110.433 17.2565C110.433 17.2838 110.431 17.3029 110.431 17.3138C110.431 17.5047 110.479 17.6547 110.577 17.7638C110.674 17.8729 110.811 17.9302 110.989 17.9302C111.101 17.9302 111.195 17.9166 111.273 17.8893C111.35 17.862 111.419 17.832 111.479 17.802C111.536 17.772 111.588 17.742 111.633 17.7147C111.679 17.6875 111.722 17.6738 111.762 17.6738C111.819 17.6738 111.865 17.6875 111.9 17.7147C111.934 17.742 111.963 17.7829 111.991 17.8375L112.409 18.7375C112.12 18.9639 111.799 19.133 111.447 19.2475C111.095 19.3621 110.74 19.4194 110.382 19.4194C109.809 19.4194 109.357 19.2721 109.022 18.9775C108.687 18.683 108.515 18.2684 108.498 17.7311H108.5Z" fill="white"></path><path d="M116.381 19.4112C115.935 19.4112 115.522 19.3403 115.141 19.1984C114.76 19.0566 114.431 18.8466 114.156 18.5711C113.881 18.2956 113.664 17.9574 113.506 17.5592C113.349 17.1583 113.268 16.7001 113.268 16.1873C113.268 15.5218 113.38 14.9027 113.604 14.3272C113.827 13.7517 114.13 13.2553 114.517 12.8353C114.904 12.4153 115.353 12.0853 115.869 11.8453C116.384 11.6052 116.934 11.4852 117.515 11.4852C117.962 11.4852 118.375 11.5561 118.755 11.698C119.136 11.8398 119.466 12.0498 119.743 12.3253C120.021 12.6008 120.239 12.939 120.396 13.3372C120.554 13.7381 120.634 14.1963 120.634 14.7091C120.634 15.3691 120.522 15.9855 120.296 16.5583C120.07 17.131 119.763 17.6301 119.377 18.0529C118.99 18.4757 118.541 18.8084 118.025 19.0511C117.51 19.2939 116.963 19.4139 116.378 19.4139L116.381 19.4112ZM116.556 17.9847C116.883 17.9847 117.175 17.8974 117.438 17.7174C117.702 17.5401 117.925 17.3029 118.111 17.0056C118.297 16.7083 118.44 16.3619 118.541 15.9664C118.641 15.5709 118.69 15.1564 118.69 14.72C118.69 14.0954 118.578 13.6345 118.354 13.3399C118.131 13.0453 117.793 12.898 117.341 12.898C117.014 12.898 116.722 12.9853 116.459 13.1599C116.195 13.3344 115.972 13.5717 115.789 13.8717C115.605 14.1718 115.462 14.5209 115.362 14.9136C115.262 15.3091 115.213 15.7264 115.213 16.1655C115.213 16.7901 115.325 17.251 115.545 17.5429C115.766 17.8347 116.101 17.982 116.553 17.982L116.556 17.9847Z" fill="white"></path><path d="M126.963 19.2994C126.725 19.2994 126.562 19.2475 126.467 19.1412C126.373 19.0348 126.327 18.9039 126.327 18.743L126.39 17.6165C126.001 18.1675 125.565 18.6039 125.081 18.9257C124.597 19.2475 124.082 19.4085 123.538 19.4085C123.203 19.4085 122.896 19.3485 122.621 19.2312C122.346 19.1139 122.112 18.9366 121.917 18.7021C121.722 18.4675 121.573 18.1702 121.467 17.8102C121.361 17.4502 121.31 17.0247 121.31 16.5337C121.31 16.0974 121.358 15.6719 121.453 15.2546C121.548 14.8373 121.682 14.4391 121.854 14.0654C122.026 13.689 122.232 13.3454 122.472 13.029C122.71 12.7126 122.979 12.4426 123.271 12.2108C123.566 11.9817 123.879 11.8016 124.214 11.6707C124.546 11.5398 124.892 11.4743 125.25 11.4743C125.608 11.4743 125.94 11.5371 126.235 11.6625C126.53 11.788 126.788 11.9571 127.009 12.1726L127.536 8.14142H129.443L127.999 19.2939H126.969L126.963 19.2994ZM124.291 17.9547C124.5 17.9547 124.718 17.8866 124.938 17.7475C125.159 17.6111 125.371 17.4202 125.577 17.1774C125.783 16.9347 125.972 16.6483 126.15 16.321C126.324 15.9937 126.476 15.6391 126.602 15.26L126.845 13.3917C126.668 13.2063 126.462 13.0754 126.23 13.0017C125.998 12.9253 125.771 12.8899 125.551 12.8899C125.204 12.8899 124.889 12.9935 124.606 13.1981C124.322 13.4026 124.079 13.6699 123.876 14C123.672 14.33 123.518 14.7009 123.406 15.1155C123.294 15.5273 123.24 15.9419 123.24 16.3565C123.24 16.8965 123.332 17.2974 123.515 17.562C123.698 17.8238 123.956 17.9547 124.288 17.9547H124.291Z" fill="white"></path><path d="M132.911 19.4112C132.464 19.4112 132.052 19.3403 131.671 19.1984C131.29 19.0566 130.961 18.8466 130.686 18.5711C130.411 18.2956 130.193 17.9574 130.036 17.5592C129.878 17.1583 129.798 16.7001 129.798 16.1873C129.798 15.5218 129.91 14.9027 130.133 14.3272C130.356 13.7517 130.66 13.2553 131.046 12.8353C131.433 12.4153 131.883 12.0853 132.398 11.8453C132.914 11.6052 133.463 11.4852 134.045 11.4852C134.491 11.4852 134.904 11.5561 135.285 11.698C135.666 11.8398 135.995 12.0498 136.273 12.3253C136.55 12.6008 136.768 12.939 136.926 13.3372C137.083 13.7381 137.163 14.1963 137.163 14.7091C137.163 15.3691 137.052 15.9855 136.825 16.5583C136.599 17.131 136.293 17.6301 135.906 18.0529C135.52 18.4757 135.07 18.8084 134.554 19.0511C134.039 19.2939 133.492 19.4139 132.908 19.4139L132.911 19.4112ZM133.085 17.9847C133.412 17.9847 133.704 17.8974 133.967 17.7174C134.231 17.5401 134.454 17.3029 134.64 17.0056C134.827 16.7083 134.97 16.3619 135.07 15.9664C135.17 15.5709 135.219 15.1564 135.219 14.72C135.219 14.0954 135.107 13.6345 134.884 13.3399C134.66 13.0453 134.323 12.898 133.87 12.898C133.544 12.898 133.251 12.9853 132.988 13.1599C132.725 13.3344 132.501 13.5717 132.318 13.8717C132.135 14.1718 131.991 14.5209 131.891 14.9136C131.791 15.3091 131.742 15.7264 131.742 16.1655C131.742 16.7901 131.854 17.251 132.075 17.5429C132.295 17.8347 132.63 17.982 133.083 17.982L133.085 17.9847Z" fill="white"></path><path d="M147.166 15.3582C147.204 15.4946 147.241 15.631 147.278 15.7701C147.341 15.631 147.41 15.4919 147.484 15.3582C147.559 15.2246 147.636 15.0909 147.722 14.96L151.677 8.76054C151.722 8.68417 151.771 8.62689 151.823 8.58325C151.871 8.54234 151.926 8.50961 151.98 8.49052C152.035 8.47143 152.098 8.45779 152.166 8.45234C152.235 8.44688 152.312 8.44415 152.404 8.44415H153.956L152.553 19.2966H150.757L151.671 12.2271C151.685 12.0962 151.711 11.9544 151.743 11.7989C151.774 11.6434 151.808 11.4852 151.846 11.3271L147.928 17.5265C147.839 17.6656 147.728 17.772 147.593 17.8429C147.458 17.9138 147.312 17.9493 147.155 17.9493H146.871C146.714 17.9493 146.576 17.9138 146.459 17.8429C146.342 17.772 146.256 17.6683 146.204 17.5265L143.856 11.3516C143.85 11.5071 143.844 11.6571 143.836 11.8016C143.827 11.9462 143.816 12.0798 143.801 12.1998L142.902 19.2994H141.098L142.501 8.44688H144.039C144.128 8.44688 144.208 8.44688 144.277 8.45506C144.346 8.46052 144.406 8.47143 144.457 8.49325C144.509 8.51234 144.555 8.54507 144.592 8.58598C144.629 8.62962 144.663 8.6869 144.695 8.76326L147.052 14.9627C147.1 15.0936 147.141 15.2246 147.178 15.3609L147.166 15.3582Z" fill="white"></path><path d="M160.812 19.2994H159.787C159.549 19.2994 159.386 19.2476 159.291 19.1412C159.197 19.0348 159.148 18.9039 159.148 18.743L159.211 17.6929C158.853 18.2248 158.452 18.6421 158.005 18.9503C157.559 19.2585 157.069 19.4112 156.531 19.4112C156.227 19.4112 155.941 19.3539 155.677 19.2394C155.411 19.1248 155.182 18.953 154.984 18.7266C154.787 18.5002 154.632 18.2139 154.52 17.8702C154.409 17.5265 154.351 17.1256 154.351 16.6647C154.351 16.2037 154.411 15.7564 154.532 15.32C154.652 14.8837 154.824 14.4745 155.047 14.0927C155.271 13.7109 155.54 13.359 155.855 13.0372C156.17 12.7181 156.522 12.4426 156.914 12.2108C157.307 11.9817 157.728 11.8017 158.183 11.6735C158.638 11.5453 159.117 11.4825 159.621 11.4825C159.984 11.4825 160.348 11.5071 160.712 11.5589C161.075 11.6107 161.436 11.698 161.788 11.8289L160.812 19.2967V19.2994ZM157.298 17.8948C157.513 17.8948 157.725 17.8238 157.934 17.6847C158.14 17.5456 158.338 17.352 158.521 17.1038C158.704 16.8556 158.876 16.5638 159.034 16.2283C159.191 15.8928 159.328 15.5328 159.443 15.1482L159.749 12.8217C159.609 12.8081 159.477 12.7999 159.354 12.7999C158.919 12.7999 158.515 12.8954 158.14 13.0863C157.768 13.2772 157.444 13.5336 157.172 13.8554C156.9 14.1773 156.685 14.5536 156.531 14.9818C156.376 15.4101 156.299 15.8601 156.299 16.3374C156.299 16.8774 156.387 17.2729 156.568 17.5238C156.745 17.7747 156.992 17.8975 157.301 17.8975L157.298 17.8948Z" fill="white"></path><path d="M168.982 13.8281C168.982 14.0572 168.956 14.2645 168.902 14.4473C168.85 14.63 168.784 14.7991 168.71 14.9546C168.633 15.11 168.55 15.2546 168.461 15.3937C168.372 15.5301 168.286 15.6719 168.209 15.8137C168.129 15.9555 168.066 16.1056 168.017 16.2637C167.968 16.4219 167.943 16.5965 167.943 16.7847C167.943 16.9892 167.985 17.1774 168.077 17.352C168.166 17.5238 168.263 17.7011 168.369 17.8811C168.475 18.0611 168.573 18.2548 168.661 18.4593C168.75 18.6639 168.796 18.9012 168.796 19.1712C168.796 19.5503 168.707 19.9131 168.527 20.2567C168.349 20.6004 168.091 20.9004 167.754 21.1568C167.418 21.4131 167.009 21.6177 166.525 21.7677C166.041 21.9177 165.494 21.9941 164.887 21.9941C164.389 21.9941 163.939 21.945 163.544 21.8468C163.146 21.7486 162.808 21.6122 162.527 21.4377C162.247 21.2631 162.032 21.0559 161.88 20.8186C161.731 20.5813 161.657 20.3194 161.657 20.0358C161.657 19.6103 161.768 19.253 161.995 18.9639C162.221 18.6748 162.513 18.4402 162.868 18.263C163.226 18.0857 163.627 17.9575 164.071 17.8811C164.515 17.8047 164.959 17.7638 165.4 17.7638C165.614 17.7638 165.826 17.772 166.03 17.7911C166.236 17.8075 166.428 17.832 166.614 17.862C166.594 17.7829 166.577 17.7011 166.562 17.622C166.551 17.5429 166.542 17.4556 166.542 17.3656C166.542 17.0765 166.625 16.7547 166.794 16.4056C166.594 16.5365 166.367 16.6347 166.115 16.7056C165.863 16.7765 165.557 16.812 165.202 16.812C164.898 16.812 164.606 16.7656 164.331 16.6701C164.056 16.5747 163.813 16.4301 163.604 16.2337C163.395 16.0374 163.226 15.7946 163.103 15.5028C162.98 15.211 162.917 14.87 162.917 14.4773C162.917 14.0845 162.991 13.7354 163.137 13.3781C163.283 13.0208 163.501 12.699 163.79 12.4181C164.079 12.1344 164.437 11.908 164.861 11.7389C165.288 11.5698 165.78 11.4825 166.342 11.4825C166.642 11.4825 166.926 11.5153 167.198 11.5835C167.467 11.6516 167.716 11.7498 167.943 11.8808H170.205L170.119 12.4808C170.099 12.6008 170.056 12.7044 169.996 12.789C169.936 12.8735 169.847 12.9308 169.732 12.9608L168.905 13.1708C168.931 13.2717 168.951 13.3754 168.965 13.4872C168.979 13.599 168.985 13.7136 168.985 13.8336L168.982 13.8281ZM167.02 19.3294C167.02 19.2585 167.018 19.1903 167.009 19.1221C167 19.0539 166.992 18.9912 166.98 18.9312C166.697 18.8875 166.436 18.8548 166.196 18.833C165.958 18.8139 165.732 18.803 165.523 18.803C165.165 18.803 164.858 18.8303 164.603 18.8848C164.349 18.9394 164.14 19.013 163.973 19.103C163.807 19.193 163.687 19.2994 163.61 19.4194C163.532 19.5394 163.495 19.6676 163.495 19.8012C163.495 20.1012 163.621 20.3304 163.873 20.4831C164.125 20.6386 164.515 20.7149 165.039 20.7149C165.334 20.7149 165.6 20.6795 165.843 20.6086C166.084 20.5376 166.293 20.4394 166.465 20.3167C166.64 20.1913 166.774 20.044 166.872 19.8749C166.969 19.7058 167.018 19.523 167.018 19.3267L167.02 19.3294ZM165.752 15.691C165.989 15.691 166.196 15.6392 166.373 15.5328C166.551 15.4264 166.703 15.29 166.826 15.1209C166.949 14.9518 167.043 14.7582 167.106 14.5455C167.169 14.3327 167.201 14.1172 167.201 13.8963C167.201 13.5199 167.109 13.2336 166.926 13.0345C166.743 12.8354 166.473 12.7344 166.121 12.7344C165.884 12.7344 165.677 12.7835 165.5 12.8817C165.322 12.9799 165.17 13.1081 165.05 13.2717C164.93 13.4354 164.838 13.6209 164.778 13.8309C164.718 14.0409 164.686 14.2591 164.686 14.4827C164.686 14.8673 164.778 15.1646 164.959 15.3746C165.139 15.5846 165.402 15.691 165.749 15.691H165.752Z" fill="white"></path><path d="M170.259 19.2994L171.244 11.5917H172.23C172.419 11.5917 172.573 11.6326 172.693 11.7117C172.814 11.7908 172.874 11.9189 172.874 12.0935C172.874 12.129 172.874 12.189 172.865 12.2735C172.86 12.3581 172.854 12.4917 172.851 12.6744C172.845 12.8572 172.834 13.1136 172.819 13.4436C173.152 12.8381 173.513 12.3717 173.908 12.0417C174.303 11.7117 174.712 11.5453 175.136 11.5453C175.351 11.5453 175.569 11.5889 175.789 11.6789L175.434 13.449C175.171 13.3427 174.921 13.2908 174.687 13.2908C174.22 13.2908 173.81 13.5036 173.458 13.9291C173.106 14.3545 172.817 15.02 172.59 15.9256L172.164 19.2939H170.256L170.259 19.2994Z" fill="white"></path><path d="M182.023 19.2994H180.998C180.761 19.2994 180.597 19.2476 180.503 19.1412C180.408 19.0348 180.36 18.9039 180.36 18.743L180.423 17.6929C180.065 18.2248 179.664 18.6421 179.217 18.9503C178.77 19.2585 178.281 19.4112 177.742 19.4112C177.439 19.4112 177.152 19.3539 176.889 19.2394C176.622 19.1248 176.393 18.953 176.196 18.7266C175.998 18.5002 175.844 18.2139 175.732 17.8702C175.62 17.5265 175.563 17.1256 175.563 16.6647C175.563 16.2037 175.623 15.7564 175.743 15.32C175.864 14.8837 176.035 14.4745 176.259 14.0927C176.482 13.7109 176.751 13.359 177.066 13.0372C177.381 12.7181 177.734 12.4426 178.126 12.2108C178.518 11.9817 178.939 11.8017 179.395 11.6735C179.85 11.5453 180.328 11.4825 180.832 11.4825C181.196 11.4825 181.559 11.5071 181.923 11.5589C182.287 11.6107 182.648 11.698 183 11.8289L182.023 19.2967V19.2994ZM178.51 17.8948C178.724 17.8948 178.936 17.8238 179.145 17.6847C179.352 17.5456 179.549 17.352 179.732 17.1038C179.916 16.8556 180.088 16.5638 180.245 16.2283C180.403 15.8928 180.54 15.5328 180.655 15.1482L180.961 12.8217C180.821 12.8081 180.689 12.7999 180.566 12.7999C180.13 12.7999 179.727 12.8954 179.352 13.0863C178.979 13.2772 178.656 13.5336 178.384 13.8554C178.112 14.1773 177.897 14.5536 177.742 14.9818C177.588 15.4101 177.51 15.8601 177.51 16.3374C177.51 16.8774 177.599 17.2729 177.779 17.5238C177.957 17.7747 178.203 17.8975 178.512 17.8975L178.51 17.8948Z" fill="white"></path><path d="M86.4641 36.8586L87.7728 26.6362H88.758C88.9355 26.6362 89.0901 26.6716 89.2161 26.7453C89.3422 26.8189 89.4052 26.9362 89.4052 27.1026C89.4052 27.1326 89.4052 27.1871 89.3966 27.2635C89.3908 27.3426 89.3851 27.4626 89.3822 27.6317C89.3765 27.7981 89.3651 28.0354 89.3507 28.3408C89.7402 27.7844 90.1784 27.3453 90.6709 27.0153C91.1606 26.688 91.6818 26.5244 92.2259 26.5244C92.561 26.5244 92.8674 26.5844 93.1423 26.7016C93.4172 26.8189 93.652 26.9962 93.8468 27.2308C94.0415 27.4653 94.1904 27.7626 94.2964 28.1254C94.4023 28.4854 94.4539 28.9081 94.4539 29.3936C94.4539 29.83 94.4052 30.2555 94.3107 30.6755C94.2162 31.0955 94.0816 31.4937 93.9098 31.8674C93.738 32.2438 93.5289 32.5874 93.2912 32.9038C93.0535 33.2202 92.7843 33.493 92.4922 33.7221C92.1973 33.9512 91.8851 34.1312 91.5501 34.2621C91.215 34.393 90.8714 34.4585 90.5134 34.4585C90.1554 34.4585 89.8204 34.3985 89.5254 34.2757C89.2276 34.153 88.9727 33.9812 88.758 33.763L88.357 36.8613H86.467L86.4641 36.8586ZM91.467 27.9808C91.2522 27.9808 91.0346 28.049 90.8141 28.1881C90.5936 28.3245 90.3817 28.5154 90.1755 28.7581C89.9693 29.0009 89.7803 29.2872 89.6056 29.6173C89.4309 29.9473 89.2791 30.3019 89.1531 30.6837L88.9155 32.552C89.093 32.732 89.2963 32.8602 89.5254 32.9338C89.7545 33.0102 89.9808 33.0457 90.207 33.0457C90.5535 33.0457 90.8685 32.942 91.152 32.7375C91.4355 32.5329 91.6789 32.2656 91.8823 31.9356C92.0856 31.6056 92.2402 31.2346 92.3519 30.8201C92.4636 30.4082 92.518 29.9937 92.518 29.5791C92.518 29.039 92.4264 28.6381 92.2431 28.3736C92.0598 28.1117 91.8021 27.9808 91.4699 27.9808H91.467Z" fill="white"></path><path d="M101.49 34.3439H100.465C100.227 34.3439 100.064 34.2921 99.9694 34.1857C99.8749 34.0793 99.8262 33.9484 99.8262 33.7875L99.8892 32.7374C99.5312 33.2693 99.1303 33.6866 98.6836 33.9948C98.2368 34.303 97.7472 34.4557 97.2088 34.4557C96.9052 34.4557 96.6188 34.3985 96.3554 34.2839C96.0891 34.1694 95.86 33.9975 95.6624 33.7711C95.4648 33.5448 95.3101 33.2584 95.1984 32.9147C95.0868 32.5711 95.0295 32.1701 95.0295 31.7092C95.0295 31.2483 95.0896 30.801 95.2099 30.3646C95.3302 29.9282 95.502 29.5191 95.7254 29.1372C95.9487 28.7554 96.2179 28.4035 96.5329 28.0817C96.8479 27.7599 97.2002 27.4871 97.5925 27.2553C97.9848 27.0262 98.4058 26.8462 98.8611 26.718C99.3165 26.5898 99.7947 26.5271 100.299 26.5271C100.662 26.5271 101.026 26.5516 101.39 26.6034C101.753 26.6553 102.114 26.7425 102.467 26.8735L101.49 34.3412V34.3439ZM97.9762 32.9393C98.191 32.9393 98.4029 32.8684 98.612 32.7293C98.8182 32.5902 99.0158 32.3965 99.1991 32.1483C99.3823 31.9001 99.5542 31.6083 99.7117 31.2728C99.8692 30.9373 100.007 30.5773 100.121 30.1927L100.428 27.8662C100.287 27.8526 100.156 27.8444 100.032 27.8444C99.5971 27.8444 99.1933 27.9399 98.8182 28.1308C98.4459 28.3217 98.1223 28.5781 97.8502 28.8999C97.5782 29.2218 97.3634 29.5982 97.2088 30.0264C97.0541 30.4546 96.9768 30.9046 96.9768 31.3819C96.9768 31.9219 97.0656 32.3174 97.246 32.5683C97.4235 32.8193 97.6698 32.942 97.9791 32.942L97.9762 32.9393Z" fill="white"></path><path d="M103.294 34.3439L104.279 26.6362H105.264C105.453 26.6362 105.608 26.6771 105.728 26.7562C105.849 26.8353 105.909 26.9635 105.909 27.138C105.909 27.1735 105.909 27.2335 105.9 27.318C105.894 27.4026 105.889 27.5362 105.886 27.719C105.88 27.9017 105.869 28.1581 105.854 28.4881C106.187 27.8826 106.547 27.4162 106.943 27.0862C107.338 26.7562 107.747 26.5898 108.171 26.5898C108.386 26.5898 108.604 26.6335 108.824 26.7235L108.469 28.4936C108.205 28.3872 107.956 28.3354 107.721 28.3354C107.255 28.3354 106.845 28.5481 106.493 28.9736C106.141 29.3991 105.851 30.0646 105.625 30.9701L105.199 34.3385H103.291L103.294 34.3439Z" fill="white"></path><path d="M115.058 34.3439H114.033C113.795 34.3439 113.632 34.2921 113.538 34.1857C113.443 34.0793 113.394 33.9484 113.394 33.7875L113.458 32.7374C113.1 33.2693 112.699 33.6866 112.252 33.9948C111.805 34.303 111.315 34.4557 110.777 34.4557C110.474 34.4557 110.187 34.3985 109.924 34.2839C109.657 34.1694 109.428 33.9975 109.231 33.7711C109.033 33.5448 108.878 33.2584 108.767 32.9147C108.655 32.5711 108.598 32.1701 108.598 31.7092C108.598 31.2483 108.658 30.801 108.778 30.3646C108.898 29.9282 109.07 29.5191 109.294 29.1372C109.517 28.7554 109.786 28.4035 110.101 28.0817C110.416 27.7599 110.768 27.4871 111.161 27.2553C111.553 27.0262 111.974 26.8462 112.429 26.718C112.885 26.5898 113.363 26.5271 113.867 26.5271C114.231 26.5271 114.594 26.5516 114.958 26.6034C115.322 26.6553 115.683 26.7425 116.035 26.8735L115.058 34.3412V34.3439ZM111.545 32.9393C111.759 32.9393 111.971 32.8684 112.18 32.7293C112.386 32.5902 112.584 32.3965 112.767 32.1483C112.951 31.9001 113.122 31.6083 113.28 31.2728C113.437 30.9373 113.575 30.5773 113.689 30.1927L113.996 27.8662C113.856 27.8526 113.724 27.8444 113.601 27.8444C113.165 27.8444 112.762 27.9399 112.386 28.1308C112.014 28.3217 111.691 28.5781 111.419 28.8999C111.146 29.2218 110.932 29.5982 110.777 30.0264C110.622 30.4546 110.545 30.9046 110.545 31.3819C110.545 31.9219 110.634 32.3174 110.814 32.5683C110.992 32.8193 111.238 32.942 111.547 32.942L111.545 32.9393Z" fill="white"></path><path d="M126.86 25.4443C126.785 25.5452 126.714 25.6188 126.639 25.6652C126.565 25.7116 126.476 25.7361 126.37 25.7361C126.264 25.7361 126.158 25.6952 126.046 25.6161C125.935 25.537 125.806 25.447 125.651 25.3488C125.497 25.2506 125.319 25.1634 125.113 25.0815C124.904 25.0024 124.655 24.9615 124.36 24.9615C124.065 24.9615 123.816 25.0024 123.595 25.0815C123.375 25.1606 123.188 25.2725 123.039 25.4116C122.891 25.5507 122.776 25.717 122.702 25.908C122.624 26.0989 122.587 26.3034 122.587 26.5244C122.587 26.7453 122.65 26.9471 122.773 27.0971C122.896 27.2499 123.06 27.3835 123.257 27.4981C123.458 27.6126 123.687 27.7162 123.942 27.8063C124.199 27.8963 124.46 27.9917 124.726 28.0926C124.993 28.1935 125.253 28.3081 125.511 28.439C125.769 28.5699 125.998 28.7281 126.195 28.919C126.393 29.11 126.556 29.3391 126.679 29.6064C126.802 29.8737 126.865 30.1982 126.865 30.5773C126.865 31.1065 126.771 31.6083 126.576 32.0774C126.384 32.5465 126.109 32.9584 125.749 33.3129C125.388 33.6648 124.952 33.9457 124.44 34.153C123.927 34.3603 123.352 34.4639 122.71 34.4639C122.378 34.4639 122.054 34.4312 121.734 34.363C121.413 34.2948 121.112 34.1994 120.829 34.0739C120.545 33.9484 120.282 33.7984 120.041 33.6239C119.801 33.4493 119.589 33.2529 119.411 33.0375L120.136 32.1074C120.193 32.0365 120.267 31.9792 120.356 31.9356C120.445 31.892 120.534 31.8674 120.622 31.8674C120.706 31.8674 120.789 31.892 120.872 31.9438C120.955 31.9956 121.043 32.0556 121.141 32.1265C121.238 32.2002 121.344 32.2792 121.456 32.3665C121.568 32.4538 121.699 32.5329 121.845 32.6065C121.991 32.6802 122.157 32.7402 122.341 32.7893C122.524 32.8384 122.736 32.8656 122.979 32.8656C123.572 32.8656 124.039 32.7047 124.374 32.3856C124.709 32.0665 124.878 31.6219 124.878 31.0574C124.878 30.8064 124.818 30.6019 124.698 30.441C124.577 30.28 124.417 30.1464 124.216 30.0346C124.016 29.9255 123.79 29.8273 123.538 29.7455C123.286 29.6636 123.028 29.5764 122.762 29.4836C122.495 29.3909 122.238 29.2845 121.986 29.1618C121.734 29.0391 121.507 28.8809 121.307 28.6899C121.106 28.4963 120.946 28.2617 120.826 27.9808C120.706 27.6999 120.645 27.3562 120.645 26.9444C120.645 26.478 120.737 26.0307 120.917 25.5998C121.098 25.1688 121.358 24.7897 121.694 24.4624C122.029 24.1351 122.438 23.8733 122.919 23.6742C123.4 23.4778 123.942 23.3769 124.546 23.3769C124.855 23.3769 125.153 23.4069 125.439 23.4669C125.726 23.5269 125.992 23.6115 126.238 23.7233C126.485 23.8324 126.711 23.966 126.92 24.116C127.126 24.2688 127.306 24.4379 127.458 24.6233L126.851 25.4416L126.86 25.4443Z" fill="white"></path><path d="M134.52 28.4308C134.52 28.7772 134.449 29.0909 134.302 29.3773C134.159 29.6609 133.899 29.9173 133.526 30.1437C133.154 30.37 132.647 30.5637 132.009 30.7246C131.37 30.8883 130.557 31.0164 129.569 31.1119V31.2101C129.569 32.4211 130.107 33.0266 131.184 33.0266C131.416 33.0266 131.619 33.0047 131.8 32.9638C131.977 32.9202 132.135 32.8711 132.269 32.8111C132.404 32.7511 132.524 32.6829 132.633 32.6093C132.742 32.5329 132.842 32.4674 132.934 32.4074C133.025 32.3474 133.117 32.2956 133.206 32.2547C133.294 32.2138 133.392 32.192 133.498 32.192C133.561 32.192 133.624 32.2056 133.687 32.2329C133.75 32.2602 133.801 32.3011 133.844 32.3556L134.34 32.9257C134.062 33.1902 133.787 33.422 133.521 33.6157C133.251 33.8121 132.979 33.9703 132.702 34.0957C132.424 34.2212 132.129 34.3139 131.82 34.3739C131.51 34.4339 131.17 34.4639 130.803 34.4639C130.331 34.4639 129.901 34.3876 129.517 34.2348C129.133 34.0821 128.804 33.8666 128.532 33.5884C128.26 33.3102 128.048 32.9747 127.899 32.582C127.75 32.1892 127.676 31.7501 127.676 31.2646C127.676 30.8583 127.722 30.4628 127.813 30.0728C127.905 29.6827 128.037 29.3118 128.211 28.9627C128.386 28.6136 128.598 28.289 128.85 27.9944C129.102 27.6999 129.388 27.4435 129.706 27.228C130.024 27.0126 130.373 26.8462 130.754 26.7262C131.135 26.6062 131.545 26.5462 131.98 26.5462C132.415 26.5462 132.776 26.6034 133.094 26.718C133.412 26.8326 133.678 26.9826 133.89 27.1653C134.102 27.348 134.262 27.5526 134.365 27.7762C134.471 28.0026 134.523 28.2208 134.523 28.4363L134.52 28.4308ZM131.865 27.8308C131.602 27.8308 131.359 27.8826 131.132 27.9863C130.906 28.0899 130.703 28.2317 130.522 28.4172C130.342 28.6027 130.184 28.8236 130.05 29.08C129.915 29.3363 129.809 29.62 129.732 29.9255C130.382 29.8409 130.906 29.7482 131.304 29.6473C131.699 29.5464 132.009 29.4373 132.226 29.3172C132.444 29.1972 132.59 29.0691 132.659 28.9354C132.73 28.8018 132.765 28.6545 132.765 28.499C132.765 28.4254 132.747 28.3463 132.713 28.2672C132.679 28.1881 132.627 28.1172 132.556 28.0544C132.484 27.9917 132.392 27.9399 132.281 27.8963C132.169 27.8526 132.029 27.8335 131.868 27.8335L131.865 27.8308Z" fill="white"></path><path d="M135.15 34.3439L136.135 26.6362H137.12C137.321 26.6362 137.478 26.6825 137.593 26.7725C137.707 26.8625 137.768 27.0044 137.768 27.2007V27.2226C137.768 27.2226 137.768 27.2662 137.765 27.3235C137.765 27.3808 137.759 27.468 137.753 27.5853C137.748 27.7026 137.739 27.869 137.73 28.0844C138.094 27.558 138.486 27.168 138.913 26.9089C139.34 26.6525 139.784 26.5216 140.245 26.5216C140.743 26.5216 141.135 26.6798 141.422 26.9935C141.708 27.3098 141.874 27.7653 141.923 28.3599C142.301 27.7299 142.719 27.2662 143.18 26.9689C143.638 26.6716 144.139 26.5216 144.681 26.5216C145.285 26.5216 145.752 26.7153 146.078 27.1026C146.407 27.4898 146.571 28.049 146.571 28.7799C146.571 28.8808 146.571 28.9872 146.562 29.099C146.556 29.2109 146.548 29.3254 146.531 29.44L145.923 34.3412H144.002C144.108 33.4902 144.197 32.7702 144.271 32.1756C144.346 31.5837 144.406 31.0873 144.451 30.6891C144.497 30.2909 144.535 29.98 144.563 29.7536C144.589 29.5272 144.609 29.3554 144.623 29.2327C144.638 29.1099 144.643 29.0281 144.646 28.9845C144.649 28.9408 144.649 28.9081 144.649 28.8836C144.649 28.5836 144.598 28.3681 144.492 28.2344C144.386 28.1008 144.217 28.0353 143.979 28.0353C143.779 28.0353 143.584 28.0844 143.395 28.1853C143.206 28.2863 143.025 28.4308 142.856 28.6217C142.685 28.8127 142.527 29.0445 142.384 29.32C142.241 29.5954 142.112 29.9064 142.003 30.25L141.499 34.3412H139.583L140.19 29.44C140.202 29.3336 140.21 29.2354 140.219 29.1427C140.228 29.0499 140.23 28.9627 140.23 28.8836C140.23 28.5836 140.179 28.3681 140.076 28.2344C139.973 28.1008 139.804 28.0353 139.569 28.0353C139.363 28.0353 139.165 28.0872 138.97 28.1935C138.776 28.2999 138.592 28.4499 138.423 28.649C138.252 28.8454 138.094 29.0881 137.951 29.3691C137.808 29.6527 137.679 29.9691 137.57 30.3182L137.066 34.3412H135.159L135.15 34.3439Z" fill="white"></path><path d="M147.284 36.8586L148.592 26.6362H149.578C149.755 26.6362 149.91 26.6716 150.036 26.7453C150.162 26.8189 150.225 26.9362 150.225 27.1026C150.225 27.1326 150.225 27.1871 150.216 27.2635C150.21 27.3426 150.205 27.4626 150.202 27.6317C150.196 27.7981 150.185 28.0354 150.17 28.3408C150.56 27.7844 150.998 27.3453 151.49 27.0153C151.98 26.688 152.501 26.5244 153.045 26.5244C153.381 26.5244 153.687 26.5844 153.962 26.7016C154.237 26.8189 154.472 26.9962 154.666 27.2308C154.861 27.4653 155.01 27.7626 155.116 28.1254C155.222 28.4854 155.273 28.9081 155.273 29.3936C155.273 29.83 155.225 30.2555 155.13 30.6755C155.036 31.0955 154.901 31.4937 154.729 31.8674C154.558 32.2438 154.348 32.5874 154.111 32.9038C153.873 33.2202 153.604 33.493 153.312 33.7221C153.017 33.9512 152.705 34.1312 152.37 34.2621C152.035 34.393 151.691 34.4585 151.333 34.4585C150.975 34.4585 150.64 34.3985 150.345 34.2757C150.047 34.153 149.792 33.9812 149.578 33.763L149.177 36.8613H147.287L147.284 36.8586ZM152.287 27.9808C152.072 27.9808 151.854 28.049 151.634 28.1881C151.413 28.3272 151.201 28.5154 150.995 28.7581C150.789 29.0009 150.6 29.2872 150.425 29.6173C150.251 29.9473 150.099 30.3019 149.973 30.6837L149.735 32.552C149.913 32.732 150.116 32.8602 150.345 32.9338C150.574 33.0102 150.8 33.0457 151.027 33.0457C151.373 33.0457 151.688 32.942 151.972 32.7375C152.255 32.5329 152.499 32.2656 152.702 31.9356C152.905 31.6056 153.06 31.2346 153.171 30.8201C153.283 30.4082 153.338 29.9937 153.338 29.5791C153.338 29.039 153.246 28.6381 153.063 28.3736C152.879 28.1117 152.622 27.9808 152.289 27.9808H152.287Z" fill="white"></path><path d="M155.958 34.3439L156.943 26.6362H157.928C158.117 26.6362 158.272 26.6771 158.392 26.7562C158.512 26.8353 158.572 26.9635 158.572 27.138C158.572 27.1735 158.573 27.2335 158.564 27.318C158.558 27.4026 158.552 27.5362 158.55 27.719C158.544 27.9017 158.532 28.1581 158.518 28.4881C158.85 27.8826 159.211 27.4162 159.606 27.0862C160.001 26.7562 160.411 26.5898 160.835 26.5898C161.05 26.5898 161.267 26.6335 161.488 26.7235L161.133 28.4936C160.869 28.3872 160.62 28.3354 160.385 28.3354C159.918 28.3354 159.509 28.5481 159.157 28.9736C158.804 29.3991 158.515 30.0646 158.289 30.9701L157.862 34.3385H155.955L155.958 34.3439Z" fill="white"></path><path d="M168.195 28.4308C168.195 28.7772 168.123 29.0909 167.977 29.3773C167.834 29.6609 167.573 29.9173 167.201 30.1437C166.829 30.37 166.322 30.5637 165.683 30.7246C165.044 30.8883 164.231 31.0164 163.243 31.1119V31.2101C163.243 32.4211 163.782 33.0266 164.858 33.0266C165.09 33.0266 165.294 33.0047 165.474 32.9638C165.652 32.9202 165.809 32.8711 165.944 32.8111C166.078 32.7511 166.199 32.6829 166.307 32.6093C166.416 32.5329 166.516 32.4674 166.608 32.4074C166.7 32.3474 166.791 32.2956 166.88 32.2547C166.969 32.2138 167.066 32.192 167.172 32.192C167.235 32.192 167.298 32.2056 167.361 32.2329C167.424 32.2602 167.476 32.3011 167.519 32.3556L168.014 32.9257C167.736 33.1902 167.461 33.422 167.195 33.6157C166.926 33.8121 166.654 33.9703 166.376 34.0957C166.098 34.2212 165.803 34.3139 165.494 34.3739C165.185 34.4339 164.844 34.4639 164.477 34.4639C164.005 34.4639 163.575 34.3876 163.192 34.2348C162.808 34.0821 162.479 33.8666 162.207 33.5884C161.934 33.3102 161.723 32.9747 161.574 32.582C161.425 32.1892 161.35 31.7501 161.35 31.2646C161.35 30.8583 161.396 30.4628 161.488 30.0728C161.579 29.6827 161.711 29.3118 161.886 28.9627C162.06 28.6136 162.272 28.289 162.524 27.9944C162.776 27.6999 163.063 27.4435 163.381 27.228C163.699 27.0126 164.048 26.8462 164.429 26.7262C164.81 26.6062 165.219 26.5462 165.654 26.5462C166.09 26.5462 166.451 26.6034 166.768 26.718C167.086 26.8326 167.353 26.9826 167.565 27.1653C167.776 27.348 167.937 27.5526 168.04 27.7762C168.146 28.0026 168.197 28.2208 168.197 28.4363L168.195 28.4308ZM165.54 27.8308C165.276 27.8308 165.033 27.8826 164.807 27.9863C164.581 28.0899 164.377 28.2317 164.197 28.4172C164.016 28.6027 163.859 28.8236 163.724 29.08C163.59 29.3363 163.484 29.62 163.406 29.9255C164.056 29.8409 164.581 29.7482 164.979 29.6473C165.374 29.5464 165.683 29.4373 165.901 29.3172C166.118 29.1972 166.264 29.0691 166.333 28.9354C166.405 28.8018 166.439 28.6545 166.439 28.499C166.439 28.4254 166.422 28.3463 166.388 28.2672C166.353 28.1881 166.302 28.1172 166.23 28.0544C166.158 27.9917 166.067 27.9399 165.955 27.8963C165.843 27.8526 165.703 27.8335 165.543 27.8335L165.54 27.8308Z" fill="white"></path></g><defs><clipPath id="clip0_3_373"><rect width="183" height="45" fill="white"></rect></clipPath></defs></svg>