<svg xmlns="http://www.w3.org/2000/svg" width="31" height="65" viewBox="0 0 31 65" fill="none"><rect x="31" width="64.5837" height="30.0721" rx="15.036" transform="rotate(90 31 0)" fill="url(#paint0_linear_474_742)"></rect><path d="M16.964 12.1912C16.964 11.6389 16.5163 11.1912 15.964 11.1912C15.4117 11.1912 14.964 11.6389 14.964 12.1912L16.964 12.1912ZM15.2569 53.0996C15.6474 53.4901 16.2806 53.4901 16.6711 53.0996L23.0351 46.7356C23.4256 46.3451 23.4256 45.7119 23.0351 45.3214C22.6445 44.9309 22.0114 44.9309 21.6208 45.3214L15.964 50.9783L10.3071 45.3214C9.91661 44.9309 9.28344 44.9309 8.89292 45.3214C8.5024 45.7119 8.5024 46.3451 8.89292 46.7356L15.2569 53.0996ZM14.964 12.1912L14.964 52.3925L16.964 52.3925L16.964 12.1912L14.964 12.1912Z" fill="white"></path><defs><linearGradient id="paint0_linear_474_742" x1="31" y1="0" x2="95.695" y2="0.241217" gradientUnits="userSpaceOnUse"><stop stop-color="#65D8D3"></stop><stop offset="1" stop-color="#076D76"></stop></linearGradient></defs></svg>